<svg width="46" height="45" viewBox="0 0 46 45" fill="none" xmlns="http://www.w3.org/2000/svg">
<path d="M23.2502 18.2869C24.0475 18.2869 24.6986 18.9363 24.6986 19.7336C24.6986 20.4611 25.2899 21.0508 26.0174 21.0508C26.7433 21.0508 27.3346 20.4611 27.3346 19.7336C27.3346 17.9464 26.1702 16.4382 24.5673 15.8867V15.1393C24.5673 14.4134 23.9777 13.8204 23.2502 13.8204C22.521 13.8204 21.9313 14.4134 21.9313 15.1393V15.8867C20.3285 16.4382 19.1674 17.9464 19.1674 19.7336C19.1674 21.9876 20.9978 23.818 23.2502 23.818C24.0475 23.818 24.6986 24.4691 24.6986 25.2664C24.6986 26.0654 24.0475 26.7148 23.2502 26.7148C22.4529 26.7148 21.8034 26.0654 21.8034 25.2664C21.8034 24.5389 21.2121 23.9476 20.4846 23.9476C19.7554 23.9476 19.1674 24.5389 19.1674 25.2664C19.1674 27.0537 20.3285 28.5602 21.9313 29.1117V29.8591C21.9313 30.5883 22.521 31.1796 23.2502 31.1796C23.9777 31.1796 24.5673 30.5883 24.5673 29.8591V29.1117C26.1702 28.5602 27.3346 27.0537 27.3346 25.2664C27.3346 23.0141 25.5025 21.182 23.2502 21.182C22.4529 21.182 21.8034 20.5326 21.8034 19.7336C21.8034 18.9363 22.4529 18.2869 23.2502 18.2869ZM34.2942 29.8192C34.9403 30.1598 35.736 29.9123 36.0748 29.2711C37.1711 27.1998 37.7491 24.8578 37.7491 22.4992C37.7491 14.5064 31.2429 8.00192 23.2502 8.00192C15.2557 8.00192 8.75124 14.5064 8.75124 22.4992C8.75124 30.4936 15.2557 36.9981 23.2502 36.9981C25.5739 36.9981 27.8827 36.4367 29.9274 35.372C30.5735 35.0381 30.8244 34.2392 30.4888 33.5947C30.1533 32.9519 29.3577 32.6961 28.7099 33.0333C27.0173 33.917 25.1786 34.3638 23.2502 34.3638C16.7091 34.3638 11.3856 29.0419 11.3856 22.4992C11.3856 15.9598 16.7091 10.6363 23.2502 10.6363C29.7912 10.6363 35.1147 15.9598 35.1147 22.4992C35.1147 24.4309 34.6397 26.3461 33.7461 28.037C33.4039 28.6815 33.6497 29.4787 34.2942 29.8192ZM23.2502 2.72656C19.4315 2.72656 15.7241 3.81951 12.53 5.88414C11.9171 6.27946 11.7427 7.09501 12.138 7.70626C12.535 8.31751 13.3472 8.49026 13.9618 8.09826C16.7257 6.31101 19.9414 5.36424 23.2502 5.36424C32.6996 5.36424 40.3851 13.0514 40.3851 22.4992C40.3851 31.9487 32.6996 39.6358 23.2502 39.6358C13.8007 39.6358 6.11356 31.9487 6.11356 22.4992C6.11356 19.222 7.04206 16.0345 8.80107 13.2856C9.19306 12.671 9.01368 11.8555 8.3991 11.4635C7.78619 11.0715 6.97064 11.2509 6.5803 11.8638C4.55055 15.0379 3.47754 18.7187 3.47754 22.4992C3.47754 33.4037 12.3457 42.2718 23.2502 42.2718C34.153 42.2718 43.0228 33.4037 43.0228 22.4992C43.0228 11.598 34.153 2.72656 23.2502 2.72656Z" fill="black"/>
</svg>
