<svg width="40" height="45" viewBox="0 0 40 45" fill="none" xmlns="http://www.w3.org/2000/svg">
<path d="M16.4 15.6C16.7 16.35 15.2 18 15.65 18.45C16.25 19.05 17.9 17.4 18.5 17.7C19.25 18 19.25 20.25 20 20.25C20.75 20.25 20.9 18 21.5 17.7C22.25 17.4 23.9 18.9 24.35 18.45C24.95 17.85 23.3 16.2 23.6 15.6C23.9 14.85 26.15 14.85 26.15 14.1C26.15 13.35 23.9 13.2 23.6 12.6C23.3 11.85 24.8 10.2 24.35 9.75C23.75 9.15 22.1 10.8 21.5 10.5C20.75 10.2 20.75 7.95 20 7.95C19.25 7.95 19.1 10.2 18.5 10.5C17.75 10.8 16.1 9.3 15.65 9.75C15.05 10.35 16.7 12 16.4 12.6C16.1 13.35 13.85 13.35 13.85 14.1C13.85 14.85 16.1 14.85 16.4 15.6ZM33.5 6V1.2C33.5 0.6 33.05 0 32.3 0H7.55C6.95 0.15 6.5 0.6 6.5 1.2V6C4.4 6 0.5 6.6 0.5 10.95C0.5 14.25 2.9 19.2 6.5 19.8C7.1 26.4 11.9 30.9 16.25 30.9H16.85V36.45H13.7C12.2 36.45 10.85 37.65 10.85 39.3V43.8C10.85 44.4 11.3 45 12.05 45H28.1C28.7 45 29.3 44.55 29.3 43.8V39.3C29.3 37.8 28.1 36.45 26.45 36.45H23.3V30.9C29.3 30.6 33.05 25.35 33.65 19.95C37.25 19.5 39.65 14.4 39.65 11.1C39.5 6.6 35.6 6 33.5 6ZM6.5 17.55C4.55 16.8 2.75 13.5 2.75 10.95C2.75 9.45 3.5 8.4 6.5 8.25V17.55ZM26.3 38.7C26.6 38.7 26.9 39 26.9 39.3V42.75H13.1V39.3C13.1 39 13.4 38.7 13.7 38.7H26.3ZM19.1 36.45V30.9H20.9V36.45H19.1ZM31.25 18.45C31.25 22.65 28.55 28.65 22.7 28.65H16.25C12.65 28.65 8.6 24.45 8.6 18.45V2.4H31.25V18.45ZM33.5 17.55V8.25C36.5 8.4 37.1 9.45 37.1 11.1C37.25 13.65 35.45 16.95 33.5 17.55Z" fill="white"/>
</svg>
