<svg width="375" height="166" viewBox="0 0 375 166" fill="none" xmlns="http://www.w3.org/2000/svg">
<g clip-path="url(#clip0_2980_2889)">
<rect width="376" height="166" fill="#BCD1EF"/>
<path d="M-72.1001 166.599H-88.0001C-80.4001 153.199 -68.6001 128.399 -71.4001 107.299C-70.0001 108.399 -66.7001 119.099 -66.4001 133.399C-63.6001 130.499 -60.2001 127.599 -56.3001 124.999C-55.3001 115.099 -53.0001 108.199 -51.8001 107.299C-52.4001 112.099 -52.3001 117.099 -51.7001 122.099C-50.8001 121.599 -50.0001 121.099 -49.1001 120.699C-47.2001 120.699 -47.2001 120.699 -47.2001 120.699C-47.2001 120.699 -49.0001 122.199 -51.4001 124.899C-50.8001 128.399 -50.0001 131.899 -49.0001 135.299C-48.3001 134.899 -47.7001 134.399 -47.0001 133.999C-47.2001 135.099 -47.6001 136.599 -48.1001 138.299C-46.6001 142.899 -44.9001 147.299 -43.0001 151.399C-43.1001 134.399 -43.2001 114.499 -42.7001 111.199C-36.3001 124.299 -34.7001 150.999 -34.4001 165.899C-34.4001 165.799 -34.3001 165.799 -34.3001 165.699C-34.0001 154.699 -32.7001 132.099 -25.9001 121.399C-25.4001 123.899 -25.5001 139.399 -25.6001 152.599C-19.8001 142.399 -14.7001 129.699 -16.7001 118.299C-15.0001 119.299 -10.8001 130.599 -11.9001 144.699C-11.8001 144.799 -11.8001 144.899 -11.7001 144.999C-10.5001 141.699 -8.90012 138.799 -6.90012 136.599C-6.50011 138.099 -6.50007 145.899 -6.60007 153.699C-6.20007 154.499 -5.90007 155.299 -5.60007 156.099C-0.200066 149.499 4.09992 141.599 2.19992 134.499C2.79992 134.699 3.59991 135.699 4.49991 137.299C5.19991 135.699 6.09988 134.099 7.09988 132.499C7.49989 134.899 7.99992 143.799 8.19992 152.999C14.0999 142.699 19.3999 129.799 17.3999 118.299C18.6999 119.099 21.3999 125.599 22.1999 134.699C22.2999 134.599 22.3999 134.499 22.4999 134.499C22.3999 134.899 22.2999 135.299 22.2999 135.699C22.3999 137.399 22.4999 139.299 22.3999 141.199C22.5999 141.999 22.7999 142.799 22.9999 143.599C24.0999 140.899 25.4999 138.499 27.2999 136.599C27.6999 137.999 27.6999 145.099 27.5999 152.499C28.1999 153.399 28.7999 154.199 29.4999 154.999C30.0999 154.199 30.7999 153.299 31.3999 152.499C31.2999 145.099 31.3999 137.999 31.6999 136.599C33.4999 138.499 34.8999 140.899 35.9999 143.599C36.2999 142.799 36.4999 141.999 36.5999 141.199C36.5999 139.299 36.5999 137.499 36.6999 135.699C36.5999 135.299 36.5999 134.899 36.4999 134.499C36.5999 134.499 36.6999 134.599 36.7999 134.699C37.5999 125.599 40.2999 119.099 41.5999 118.299C39.5999 129.799 44.7999 142.699 50.7999 152.999C50.9999 143.699 51.4999 134.799 51.8999 132.499C52.8999 134.099 53.6999 135.699 54.4999 137.299C55.2999 135.699 56.1999 134.799 56.7999 134.499C54.8999 141.599 59.2999 149.499 64.5999 156.099C64.8999 155.299 65.1999 154.499 65.5999 153.699C65.4999 145.899 65.4999 138.099 65.8999 136.599C67.7999 138.599 69.2999 141.299 70.3999 144.199C70.4999 143.699 70.6999 143.299 70.7999 142.799C70.1999 129.699 74.0999 119.399 75.6999 118.399C75.2999 120.599 75.1999 122.799 75.2999 125.099C78.5999 109.899 80.6999 93.3992 79.2999 78.1992C80.6999 79.8992 83.9999 95.7992 84.2999 117.099C87.0999 112.699 90.4999 108.499 94.3999 104.499C95.3999 89.6992 97.6999 79.4992 98.8999 78.1992C98.2999 85.3992 98.3999 92.7992 98.9999 100.299C99.8999 99.5992 100.7 98.8992 101.6 98.1992C103.5 98.1992 103.5 98.1992 103.5 98.1992C103.5 98.1992 101.7 100.399 99.2999 104.399C99.8999 109.599 100.7 114.799 101.7 119.899C102.4 119.299 103 118.599 103.7 117.999C103.5 119.699 103.1 121.899 102.6 124.399C104.1 131.299 105.8 137.899 107.7 143.999C107.6 118.699 107.5 88.8992 108 83.9992C114.5 103.799 116 144.599 116.4 166.499H115.4H107.9H99.4999C98.7999 163.799 98.1999 161.099 97.5999 158.399C97.4999 160.999 97.4999 163.699 97.5999 166.499H93.7999C93.8999 166.599 93.8999 166.599 93.9999 166.699H93.1999H84.6999H77.4999C77.4999 166.599 77.3999 166.599 77.3999 166.499H74.5999C74.6999 166.599 74.7999 166.599 74.7999 166.699H73.9999H70.1999H65.4999H61.4999H59.5999H58.7999H58.1999H50.9999H50.1999H49.8999H42.9999H42.1999H41.1999C41.4999 165.799 41.5999 164.899 41.5999 164.099C40.5999 162.199 39.7999 160.299 39.1999 158.299C39.1999 158.399 39.0999 158.499 39.0999 158.599C39.3999 161.399 39.5999 163.999 39.6999 165.999C39.9999 166.199 40.1999 166.499 40.4999 166.699H39.6999H35.8999H34.0999H31.1999H30.8999H27.1999H26.8999H23.9999H22.1999H18.3999H17.5999C17.7999 166.499 18.0999 166.299 18.3999 165.999C18.4999 163.999 18.5999 161.399 18.9999 158.599C18.9999 158.499 18.8999 158.399 18.8999 158.299C18.1999 160.199 17.3999 162.099 16.4999 164.099C16.4999 164.999 16.6999 165.799 16.8999 166.699H15.8999H15.0999H8.19992H7.89993H7.09988H-0.100067H-0.700104H-1.50009H-3.40012H-7.40012H-12.1001H-15.9001H-16.6001C-16.4001 166.499 -16.1001 166.299 -15.8001 165.999C-15.7001 163.799 -15.5001 160.799 -15.1001 157.599C-16.1001 160.599 -17.5001 163.699 -19.2001 166.699H-26.4001H-34.9001H-35.7001L-35.6001 166.599H-36.0001H-43.5001H-51.9001C-52.6001 164.799 -53.2001 162.999 -53.8001 161.199C-53.9001 162.999 -53.9001 164.799 -53.8001 166.599H-69.0001C-69.0001 166.499 -69.0001 166.399 -69.0001 166.399H-72.8001C-72.1001 166.399 -72.1001 166.499 -72.1001 166.599ZM94.0999 115.299C92.1999 119.799 90.3999 125.199 89.1999 131.199C89.6999 132.899 90.0999 134.599 90.4999 136.399C91.5999 133.999 92.8999 131.599 94.2999 129.399C93.9999 124.499 93.9999 119.699 94.0999 115.299ZM-56.7001 141.599C-56.9001 138.299 -57.0001 135.199 -56.9001 132.199C-60.0001 137.199 -62.9001 143.799 -63.6001 151.399C-61.9001 148.099 -59.6001 144.699 -56.7001 141.599Z" fill="#819B00"/>
<path d="M209.9 166.602H194C201.6 150.902 213.4 121.702 210.6 96.9016C212 98.2016 215.3 110.802 215.6 127.502C218.4 124.102 221.8 120.702 225.7 117.602C226.7 106.002 229 97.9016 230.2 96.9016C229.6 102.502 229.7 108.402 230.3 114.302C231.2 113.702 232 113.202 232.9 112.602C234.8 112.602 234.8 112.602 234.8 112.602C234.8 112.602 233 114.302 230.6 117.502C231.2 121.602 232 125.702 233 129.802C233.7 129.302 234.3 128.802 235 128.302C234.8 129.602 234.4 131.402 233.9 133.402C235.4 138.802 237.1 144.002 239 148.802C238.9 128.902 238.8 105.402 239.3 101.602C245.7 117.002 247.3 148.402 247.6 165.802C247.6 165.702 247.7 165.702 247.7 165.602C248 152.702 249.3 126.202 256.1 113.502C256.6 116.502 256.5 134.702 256.4 150.202C262.2 138.202 267.3 123.302 265.3 109.902C267 111.102 271.2 124.402 270.1 140.802C270.2 140.902 270.2 141.002 270.3 141.102C271.5 137.302 273.1 133.802 275.1 131.202C275.5 132.902 275.5 142.202 275.4 151.302C275.8 152.302 276.1 153.202 276.4 154.202C281.8 146.502 286.1 137.202 284.2 128.902C284.8 129.202 285.6 130.302 286.5 132.202C287.2 130.302 288.1 128.402 289.1 126.602C289.5 129.402 290 139.802 290.2 150.702C296.1 138.602 301.4 123.402 299.4 109.902C300.7 110.802 303.4 118.402 304.2 129.102C304.3 129.002 304.4 128.902 304.5 128.902C304.4 129.402 304.3 129.802 304.3 130.302C304.4 132.302 304.5 134.502 304.4 136.702C304.6 137.602 304.8 138.602 305 139.502C306.1 136.402 307.5 133.502 309.3 131.302C309.7 132.902 309.7 141.302 309.6 150.002C310.2 151.002 310.8 152.002 311.5 153.002C312.1 152.002 312.8 151.002 313.4 150.002C313.3 141.402 313.4 132.902 313.7 131.302C315.5 133.502 316.9 136.302 318 139.502C318.3 138.602 318.5 137.602 318.6 136.702C318.6 134.502 318.6 132.302 318.7 130.302C318.6 129.802 318.6 129.402 318.5 128.902C318.6 128.902 318.7 129.002 318.8 129.102C319.6 118.402 322.3 110.802 323.6 109.902C321.6 123.402 326.8 138.602 332.8 150.702C333 139.802 333.5 129.402 333.9 126.602C334.9 128.402 335.7 130.302 336.5 132.202C337.3 130.402 338.2 129.202 338.8 128.902C336.9 137.202 341.3 146.502 346.6 154.202C346.9 153.302 347.2 152.302 347.6 151.302C347.5 142.202 347.5 132.902 347.9 131.202C349.8 133.602 351.3 136.702 352.4 140.102C352.5 139.502 352.7 139.002 352.8 138.402C352.2 123.002 356.1 110.902 357.7 109.802C357.3 112.402 357.2 115.002 357.3 117.702C360.6 99.8016 362.7 80.4016 361.3 62.6016C362.7 64.6016 366 83.3016 366.3 108.302C369.1 103.202 372.5 98.2016 376.4 93.6016C377.4 76.3016 379.7 64.2016 380.9 62.7016C380.3 71.1016 380.4 79.9016 381 88.7016C381.9 87.8016 382.7 87.0016 383.6 86.2016C385.5 86.2016 385.5 86.2016 385.5 86.2016C385.5 86.2016 383.7 88.8016 381.3 93.5016C381.9 99.6016 382.7 105.802 383.7 111.802C384.4 111.002 385 110.302 385.7 109.602C385.5 111.602 385.1 114.202 384.6 117.102C386.1 125.102 387.8 132.902 389.7 140.102C389.6 110.402 389.5 75.4016 390 69.7016C396.5 93.0016 398 140.902 398.4 166.602H397.4H389.9H381.5C380.8 163.402 380.2 160.302 379.6 157.102C379.5 160.202 379.5 163.402 379.6 166.602H375.8C375.9 166.702 375.9 166.802 376 166.902H375.2H366.7H359.5C359.5 166.802 359.4 166.702 359.4 166.602H356.6C356.7 166.702 356.8 166.802 356.8 166.902H356H352.2H347.5H343.5H341.6H340.8H340.2H333H332.2H331.9H325H324.2H323.2C323.5 165.902 323.6 164.802 323.6 163.802C322.6 161.602 321.8 159.302 321.2 157.002C321.2 157.102 321.1 157.202 321.1 157.302C321.4 160.602 321.6 163.702 321.7 166.002C322 166.302 322.2 166.502 322.5 166.802H321.7H317.9H316.1H313.2H312.9H309.2H308.9H306H304.2H300.4H299.6C299.8 166.502 300.1 166.302 300.4 166.002C300.5 163.702 300.6 160.602 301 157.302C301 157.202 300.9 157.102 300.9 157.002C300.2 159.302 299.4 161.502 298.5 163.802C298.5 164.802 298.7 165.802 298.9 166.902H297.9H297.1H290.2H289.9H289.1H281.9H281.3H280.5H278.6H274.6H269.9H266.1H265.3C265.5 166.602 265.8 166.402 266.1 166.102C266.2 163.502 266.4 160.002 266.8 156.202C265.8 159.802 264.4 163.302 262.7 166.902H255.5H247H246.3C246.3 166.802 246.4 166.802 246.4 166.702H246H238.5H230.1C229.4 164.602 228.8 162.502 228.2 160.302C228.1 162.402 228.1 164.502 228.2 166.702H213C213 166.602 213 166.502 213 166.402H209.2C209.9 166.402 209.9 166.502 209.9 166.602ZM376.1 106.302C374.2 111.602 372.4 117.902 371.2 125.002C371.7 127.002 372.1 129.002 372.5 131.102C373.6 128.302 374.9 125.502 376.3 122.902C376.1 117.102 376 111.602 376.1 106.302ZM225.3 137.302C225.1 133.502 225 129.802 225.1 126.202C222 132.102 219.1 139.802 218.4 148.702C220.2 144.802 222.4 140.902 225.3 137.302Z" fill="#819B00"/>
<path d="M159.6 166.702C159.4 144.602 160.1 111.202 160.8 104.602C167.8 124.702 167.9 147.602 168.1 166.702H159.6Z" fill="#4A9000"/>
<path d="M168.9 166.7H152.5C139.7 126.4 148 81.7 150.6 79C147.4 111.1 161.5 149.3 168.9 166.7Z" fill="#92A700"/>
<path d="M145.3 166.7H136.6C137.4 153.6 141.4 131.4 151.1 116.5C150.2 125.1 143 145.4 145.3 166.7Z" fill="#A6B300"/>
<path d="M140.6 166.7C140.4 152 140 116.3 140.7 112C147.7 125.4 148.9 154 149.1 166.7H140.6Z" fill="#4A9000"/>
<path d="M149.8 166.701H133.4C120.6 139.801 128.9 110.101 131.5 108.301C128.4 129.701 142.5 155.101 149.8 166.701Z" fill="#92A700"/>
<path d="M126.2 166.701H117.5C118.3 157.901 122.3 143.201 132 133.301C131.1 139.001 124 152.501 126.2 166.701Z" fill="#A6B300"/>
<path d="M102.2 166.7C102.4 152 102.8 116.3 102.1 112C95.1003 125.4 93.9004 154 93.7004 166.7H102.2Z" fill="#4A9000"/>
<path d="M92.9001 166.701H109.3C122.1 139.801 113.8 110.101 111.2 108.301C114.4 129.701 100.3 155.101 92.9001 166.701Z" fill="#92A700"/>
<path d="M116.5 166.701H125.2C124.4 157.901 120.4 143.201 110.7 133.301C111.6 139.001 118.8 152.501 116.5 166.701Z" fill="#A6B300"/>
<path d="M117.3 166.702C117.5 144.602 116.8 111.202 116.1 104.602C109.1 124.702 109 147.602 108.8 166.702H117.3Z" fill="#4A9000"/>
<path d="M108 166.7H124.4C137.2 126.4 128.9 81.7 126.3 79C129.4 111.1 115.4 149.3 108 166.7Z" fill="#92A700"/>
<path d="M136.3 166.7C136.5 152 136.9 116.3 136.2 112C129.2 125.4 128 154 127.8 166.7H136.3Z" fill="#4A9000"/>
<path d="M127.1 166.701H143.5C156.3 139.801 148 110.101 145.4 108.301C148.5 129.701 134.4 155.101 127.1 166.701Z" fill="#92A700"/>
<path d="M150.7 166.701H159.4C158.6 157.901 154.6 143.201 144.9 133.301C145.7 139.001 152.9 152.501 150.7 166.701Z" fill="#A6B300"/>
<path d="M131.6 166.7H140.3C139.5 153.6 135.5 131.4 125.8 116.5C126.7 125.1 133.9 145.4 131.6 166.7Z" fill="#A6B300"/>
<path d="M174.7 166.7C174.5 152 174.1 116.3 174.8 112C181.8 125.4 183 154 183.2 166.7H174.7Z" fill="#4A9000"/>
<path d="M184 166.701H167.6C154.8 139.801 163.1 110.101 165.7 108.301C162.5 129.701 176.6 155.101 184 166.701Z" fill="#92A700"/>
<path d="M160.4 166.701H151.7C152.5 157.901 156.5 143.201 166.2 133.301C165.3 139.001 158.1 152.501 160.4 166.701Z" fill="#A6B300"/>
<path d="M84.1997 166.7C83.9997 152 83.5997 116.3 84.2997 112C91.2997 125.4 92.4997 154 92.6997 166.7H84.1997Z" fill="#BECE00"/>
<path d="M93.3999 166.701H76.9999C64.1999 139.801 72.4999 110.101 75.0999 108.301C71.9999 129.701 85.9999 155.101 93.3999 166.701Z" fill="#BECE00"/>
<path d="M69.8001 166.701H61.1001C61.9001 157.901 65.9001 143.201 75.6001 133.301C74.7001 139.001 67.5001 152.501 69.8001 166.701Z" fill="#BECE00"/>
<path d="M193.8 166.7C193.6 144.6 193.2 91.1 193.9 84.5C200.9 104.6 202.1 147.6 202.3 166.7H193.8Z" fill="#4A9000"/>
<path d="M203.1 166.7H186.7C173.9 126.4 182.2 81.7 184.8 79C181.6 111.1 195.7 149.3 203.1 166.7Z" fill="#92A700"/>
<path d="M179.5 166.7H170.8C171.6 153.6 175.6 131.4 185.3 116.5C184.4 125.1 177.2 145.4 179.5 166.7Z" fill="#A6B300"/>
<path d="M221.8 166.498H237.7C248.6 132.698 240.8 96.6984 238.4 94.3984C241.2 120.098 229.4 150.198 221.8 166.498Z" fill="#597200"/>
<path d="M274.5 166.498H258.6C247.7 132.698 255.5 96.6984 257.9 94.3984C255.1 120.098 266.9 150.198 274.5 166.498Z" fill="#4A9000"/>
<path d="M267 166.499C266.8 145.699 266.5 104.499 267.1 99.1992C273.6 115.399 275.1 148.599 275.5 166.499H267Z" fill="#92A700"/>
<path d="M247.6 166.297H228.1C229.1 152.997 234.5 127.197 260.6 110.797C262.5 110.797 262.5 110.797 262.5 110.797C262.5 110.797 240.1 133.397 247.6 166.297Z" fill="#92A700"/>
<path d="M256.7 166.498H241.5C242.9 154.898 247.5 137.698 262.8 126.898C262 133.798 255.7 149.498 256.7 166.498Z" fill="#A6B300"/>
<path d="M360.6 166.7C360.4 151.9 361.1 129.4 361.8 125C368.8 138.5 368.9 153.8 369.1 166.7H360.6Z" fill="#4A9000"/>
<path d="M369.9 166.701H353.5C340.7 139.601 349 109.701 351.6 107.801C348.4 129.401 362.5 155.001 369.9 166.701Z" fill="#92A700"/>
<path d="M346.3 166.702H337.6C338.4 157.902 342.4 143.002 352.1 133.102C351.2 138.802 344 152.402 346.3 166.702Z" fill="#A6B300"/>
<path d="M341.6 166.7C341.4 156.8 341 132.9 341.7 130C348.7 139 349.9 158.2 350.1 166.7H341.6Z" fill="#4A9000"/>
<path d="M350.8 166.7H334.4C321.6 148.7 329.9 128.7 332.5 127.5C329.4 141.9 343.4 158.9 350.8 166.7Z" fill="#92A700"/>
<path d="M327.2 166.701H318.5C319.3 160.801 323.3 150.901 333 144.301C332.1 148.101 325 157.201 327.2 166.701Z" fill="#A6B300"/>
<path d="M303.2 166.7C303.4 156.8 303.8 132.9 303.1 130C296.1 139 294.9 158.2 294.7 166.7H303.2Z" fill="#4A9000"/>
<path d="M293.9 166.7H310.3C323.1 148.7 314.8 128.7 312.2 127.5C315.3 141.9 301.3 158.9 293.9 166.7Z" fill="#92A700"/>
<path d="M317.5 166.701H326.2C325.4 160.801 321.4 150.901 311.7 144.301C312.6 148.101 319.8 157.201 317.5 166.701Z" fill="#A6B300"/>
<path d="M318.2 166.7C318.4 151.9 317.7 129.4 317 125C310 138.5 309.9 153.8 309.7 166.7H318.2Z" fill="#4A9000"/>
<path d="M309 166.701H325.4C338.2 139.601 329.9 109.701 327.3 107.801C330.4 129.401 316.4 155.001 309 166.701Z" fill="#92A700"/>
<path d="M337.3 166.7C337.5 156.8 337.9 132.9 337.2 130C330.2 139 329 158.2 328.8 166.7H337.3Z" fill="#4A9000"/>
<path d="M328.1 166.7H344.5C357.3 148.7 349 128.7 346.4 127.5C349.5 141.9 335.4 158.9 328.1 166.7Z" fill="#92A700"/>
<path d="M351.7 166.701H360.4C359.6 160.801 355.6 150.901 345.9 144.301C346.7 148.101 353.9 157.201 351.7 166.701Z" fill="#A6B300"/>
<path d="M332.6 166.702H341.3C340.5 157.902 336.5 143.002 326.8 133.102C327.7 138.802 334.9 152.402 332.6 166.702Z" fill="#A6B300"/>
<path d="M385 166.7H368.6C355.8 148.7 364.1 128.7 366.7 127.5C363.5 141.9 377.6 158.9 385 166.7Z" fill="#92A700"/>
<path d="M361.4 166.701H352.7C353.5 160.801 357.5 150.901 367.2 144.301C366.3 148.101 359.1 157.201 361.4 166.701Z" fill="#A6B300"/>
<path d="M205.3 166.7C205.1 156.8 204.7 132.9 205.4 130C212.4 139 213.6 158.2 213.8 166.7H205.3Z" fill="#4A9000"/>
<path d="M214.6 166.7H198.2C185.4 148.7 193.7 128.7 196.3 127.5C193.1 141.9 207.2 158.9 214.6 166.7Z" fill="#92A700"/>
<path d="M191 166.701H182.3C183.1 160.801 187.1 150.901 196.8 144.301C195.9 148.101 188.7 157.201 191 166.701Z" fill="#A6B300"/>
<path d="M404.1 166.701H387.7C374.9 139.601 383.2 109.701 385.8 107.801C382.6 129.401 396.7 155.001 404.1 166.701Z" fill="#92A700"/>
<path d="M380.5 166.702H371.8C372.6 157.902 376.6 143.002 386.3 133.102C385.4 138.802 378.2 152.402 380.5 166.702Z" fill="#A6B300"/>
<path d="M284.1 166.702C284.3 151.902 284.7 116.002 284 111.602C277 125.102 275.8 153.902 275.6 166.702H284.1Z" fill="#A6B300"/>
<path d="M274.8 166.701H291.2C304 139.601 295.7 109.701 293.1 107.801C296.3 129.401 282.2 155.001 274.8 166.701Z" fill="#92A700"/>
<path d="M298.4 166.702H307.1C306.3 157.902 302.3 143.002 292.6 133.102C293.5 138.802 300.7 152.402 298.4 166.702Z" fill="#A6B300"/>
<path d="M59.5 166.7C59.3 156.8 58.9 132.9 59.6 130C66.6 139 67.8 158.2 68 166.7H59.5Z" fill="#4A9000"/>
<path d="M68.7998 166.7H52.3998C39.5998 148.7 47.8998 128.7 50.4998 127.5C47.2998 141.9 61.3998 158.9 68.7998 166.7Z" fill="#92A700"/>
<path d="M45.2 166.701H36.5C37.3 160.801 41.3 150.901 51 144.301C50.1 148.101 42.9 157.201 45.2 166.701Z" fill="#A6B300"/>
<path d="M21.1002 166.7C21.3002 156.8 21.7003 132.9 21.0003 130C14.0003 139 12.8002 158.2 12.6002 166.7H21.1002Z" fill="#4A9000"/>
<path d="M11.9002 166.7H28.3001C41.1001 148.7 32.8001 128.7 30.2002 127.5C33.3001 141.9 19.2002 158.9 11.9002 166.7Z" fill="#92A700"/>
<path d="M35.5002 166.701H44.2002C43.4002 160.801 39.4002 150.901 29.7002 144.301C30.6002 148.101 37.7002 157.201 35.5002 166.701Z" fill="#A6B300"/>
<path d="M36.2002 166.7C36.4002 151.9 35.7002 129.4 35.0002 125C28.0002 138.5 27.9002 153.8 27.7002 166.7H36.2002Z" fill="#4A9000"/>
<path d="M27.0002 166.701H43.4002C56.2002 139.601 47.9002 109.701 45.3002 107.801C48.4002 129.401 34.3002 155.001 27.0002 166.701Z" fill="#92A700"/>
<path d="M55.2999 166.7C55.4999 156.8 55.9 132.9 55.2 130C48.2 139 46.9999 158.2 46.7999 166.7H55.2999Z" fill="#4A9000"/>
<path d="M45.9998 166.7H62.3997C75.1997 148.7 66.8997 128.7 64.2997 127.5C67.4997 141.9 53.3998 158.9 45.9998 166.7Z" fill="#92A700"/>
<path d="M69.5998 166.701H78.2998C77.4998 160.801 73.4998 150.901 63.7998 144.301C64.6998 148.101 71.8998 157.201 69.5998 166.701Z" fill="#A6B300"/>
<path d="M50.5998 166.702H59.2998C58.4998 157.902 54.4998 143.002 44.7998 133.102C45.5998 138.802 52.7998 152.402 50.5998 166.702Z" fill="#A6B300"/>
<path d="M2.10024 166.702C2.30024 151.902 2.70026 116.002 2.00026 111.602C-4.99974 125.102 -6.19976 153.902 -6.39976 166.702H2.10024Z" fill="#A6B300"/>
<path d="M-7.19997 166.701H9.20005C22.0001 139.601 13.7 109.701 11.1 107.801C14.2 129.401 0.200026 155.001 -7.19997 166.701Z" fill="#92A700"/>
<path d="M16.4001 166.702H25.1001C24.3001 157.902 20.3001 143.002 10.6001 133.102C11.5001 138.802 18.7001 152.402 16.4001 166.702Z" fill="#A6B300"/>
<path d="M337.1 140.201C336.3 138.201 336.7 135.901 338.3 134.301C339.9 132.701 342.2 132.301 344.2 133.101C345 131.101 347 129.801 349.2 129.801C351.5 129.801 353.4 131.201 354.2 133.101C356.2 132.301 358.5 132.701 360.1 134.301C361.7 135.901 362.1 138.201 361.3 140.201C363.3 141.001 364.6 143.001 364.6 145.201C364.6 147.501 363.2 149.401 361.3 150.201C362.1 152.201 361.7 154.501 360.1 156.101C358.5 157.701 356.2 158.101 354.2 157.301C353.4 159.301 351.4 160.601 349.2 160.601C346.9 160.601 345 159.201 344.2 157.301C342.2 158.101 339.9 157.701 338.3 156.101C336.7 154.501 336.3 152.201 337.1 150.201C335.1 149.401 333.8 147.401 333.8 145.201C333.8 143.001 335.2 141.101 337.1 140.201Z" fill="white"/>
<path d="M343.9 145.401C343.9 148.301 346.3 150.701 349.2 150.701C352.1 150.701 354.5 148.301 354.5 145.401C354.5 142.501 352.1 140.101 349.2 140.101C346.3 140.001 343.9 142.401 343.9 145.401Z" fill="#A1CE00"/>
<path d="M202.7 135.002C201.9 133.002 202.3 130.702 203.9 129.102C205.5 127.502 207.8 127.102 209.8 127.902C210.6 125.902 212.6 124.602 214.8 124.602C217.1 124.602 219 126.002 219.8 127.902C221.8 127.102 224.1 127.502 225.7 129.102C227.3 130.702 227.7 133.002 226.9 135.002C228.9 135.802 230.2 137.802 230.2 140.002C230.2 142.302 228.8 144.202 226.9 145.002C227.7 147.002 227.3 149.302 225.7 150.902C224.1 152.502 221.8 152.902 219.8 152.102C219 154.102 217 155.402 214.8 155.402C212.5 155.402 210.6 154.002 209.8 152.102C207.8 152.902 205.5 152.502 203.9 150.902C202.3 149.302 201.9 147.002 202.7 145.002C200.7 144.202 199.4 142.202 199.4 140.002C199.4 137.802 200.7 135.902 202.7 135.002Z" fill="white"/>
<path d="M209.5 140.201C209.5 143.101 211.9 145.501 214.8 145.501C217.7 145.501 220.1 143.101 220.1 140.201C220.1 137.301 217.7 134.901 214.8 134.901C211.9 134.801 209.5 137.201 209.5 140.201Z" fill="#FF9800"/>
<path d="M2.19983 139.7C1.69983 138.3 1.89982 136.7 2.99982 135.6C4.09982 134.5 5.69979 134.2 7.09979 134.8C7.69979 133.4 8.99979 132.5 10.5998 132.5C12.1998 132.5 13.4998 133.5 14.0998 134.8C15.4998 134.3 17.0998 134.5 18.1998 135.6C19.2998 136.7 19.5998 138.3 18.9998 139.7C20.3998 140.3 21.2998 141.6 21.2998 143.2C21.2998 144.8 20.2998 146.1 18.9998 146.7C19.4998 148.1 19.2998 149.7 18.1998 150.8C17.0998 151.9 15.4998 152.2 14.0998 151.6C13.4998 153 12.1998 153.9 10.5998 153.9C8.99979 153.9 7.69979 152.9 7.09979 151.6C5.69979 152.1 4.09982 151.9 2.99982 150.8C1.89982 149.7 1.59983 148.1 2.19983 146.7C0.799829 146.1 -0.100159 144.8 -0.100159 143.2C-0.100159 141.6 0.89983 140.2 2.19983 139.7Z" fill="white"/>
<path d="M10.5998 146.9C8.55634 146.9 6.89984 145.243 6.89984 143.2C6.89984 141.157 8.55634 139.5 10.5998 139.5C12.6432 139.5 14.2998 141.157 14.2998 143.2C14.2998 145.243 12.6432 146.9 10.5998 146.9Z" fill="#FF9800"/>
<path d="M102 142.7C101.5 141.3 101.7 139.7 102.8 138.6C103.9 137.5 105.5 137.2 106.9 137.8C107.5 136.5 108.8 135.5 110.4 135.5C112 135.5 113.3 136.5 113.9 137.8C115.3 137.3 116.9 137.5 118 138.6C119.1 139.7 119.4 141.3 118.8 142.7C120.1 143.3 121.1 144.6 121.1 146.2C121.1 147.8 120.1 149.1 118.8 149.7C119.3 151.1 119.1 152.7 118 153.8C116.9 154.9 115.3 155.2 113.9 154.6C113.3 155.9 112 156.9 110.4 156.9C108.8 156.9 107.5 155.9 106.9 154.6C105.5 155.1 103.9 154.9 102.8 153.8C101.7 152.7 101.4 151.1 102 149.7C100.7 149.1 99.7001 147.8 99.7001 146.2C99.7001 144.7 100.6 143.3 102 142.7Z" fill="white"/>
<path d="M106.7 146.302C106.7 148.302 108.4 150.002 110.4 150.002C112.4 150.002 114.1 148.302 114.1 146.302C114.1 144.302 112.4 142.602 110.4 142.602C108.3 142.602 106.7 144.302 106.7 146.302Z" fill="#FF9800"/>
<path d="M301.698 101.873C299.737 97.9965 295.56 95.7027 291.32 95.9612C285.877 96.2842 281.163 100.032 279.296 105.136C279.612 105.395 279.771 105.815 279.676 106.235L278.537 110.596C278.948 111.339 279.359 111.986 279.549 112.212C279.866 112.535 280.214 112.858 280.593 113.181C282.207 114.538 284.264 115.636 286.479 116.347C287.903 116.799 289.39 117.122 290.877 117.219C294.263 117.478 297.617 116.767 299.958 114.602C303.47 111.404 303.787 105.976 301.698 101.873Z" fill="#BC79DB"/>
<path d="M277.967 116.216C277.999 121.708 282.903 127.944 288.789 125.424C290.434 124.713 291.89 123.13 292.111 121.256C292.269 119.802 291.7 118.413 290.909 117.185C286.574 116.83 282.176 114.892 279.581 112.178C279.36 111.952 278.948 111.306 278.569 110.562L278.157 112.113C277.999 113.502 277.936 114.859 277.967 116.216Z" fill="#8D4DBA"/>
<path d="M288.472 99.2535C289.422 98.8658 290.434 98.7043 291.447 98.6074C292.839 98.4781 294.295 98.5751 295.592 99.0274C296.921 99.512 298.123 100.417 298.756 101.709C299.389 103.001 299.357 104.649 298.535 105.78C298.186 106.264 297.712 106.652 297.174 106.943C295.497 107.88 293.662 107.686 291.826 107.718C289.738 107.75 287.618 107.847 285.53 108.073C284.802 108.138 284.011 108.267 283.283 108.526C282.555 108.784 281.859 108.073 282.081 107.33C282.492 105.844 283.22 104.293 283.916 103.227C285.055 101.515 286.606 99.9966 288.472 99.2535Z" fill="#CB98E2"/>
<path d="M282.271 111.34C282.872 112.147 283.758 112.729 284.676 113.149C286.479 113.957 289.074 114.441 290.972 113.795C291.953 113.472 292.807 112.6 292.839 111.566C292.871 110.08 291.415 109.175 290.15 108.949C288.124 108.561 286.068 109.24 284.011 109.498C283.505 109.563 282.967 109.66 282.461 109.531C282.081 109.434 281.67 109.207 281.48 108.852C281.448 109.757 281.764 110.661 282.271 111.34Z" fill="#E9C9F7"/>
<path d="M281.543 120.126C282.619 122 284.391 123.13 286.669 123.163C287.966 123.163 289.169 121.967 289.169 120.61C289.169 119.157 287.998 117.864 287.017 116.895C286.827 116.701 286.637 116.54 286.447 116.346C284.233 115.635 282.144 114.537 280.562 113.18C280.372 115.538 280.372 118.123 281.543 120.126Z" fill="#CB98E2"/>
<path d="M299.009 108.236C298.281 107.331 295.655 108.429 294.801 109.173C293.915 109.916 293.788 111.24 294.516 112.145C295.244 113.049 296.541 113.179 297.427 112.436C298.313 111.66 299.737 109.108 299.009 108.236Z" fill="#E9C9F7"/>
<path d="M275.468 118.444C274.55 118.185 274.012 117.184 274.328 116.279L275.689 112.338L276.195 110.819L277.651 106.555C277.777 106.135 278.157 105.876 278.568 105.844C278.663 105.844 278.79 105.844 278.885 105.876C278.98 105.908 279.106 105.941 279.17 106.005C279.518 106.231 279.708 106.651 279.613 107.104L277.461 117.184C277.271 118.088 276.354 118.67 275.468 118.444Z" fill="#9647BA"/>
<path d="M256.261 101.807C255.122 97.1226 257.843 92.4704 261.83 90.2735C265.595 88.2058 270.31 88.7228 273.664 91.3396C277.999 94.7319 279.834 100.547 278.568 105.813C278.157 105.846 277.809 106.104 277.651 106.524L276.195 110.789C275.468 111.176 274.74 111.467 274.455 111.532C274.012 111.629 273.537 111.693 273.063 111.725C271.006 111.919 268.696 111.629 266.45 110.95C265.026 110.53 263.602 109.916 262.336 109.173C259.394 107.461 257.021 104.941 256.261 101.807Z" fill="#BC79DB"/>
<path d="M273.569 115.765C270.532 120.288 263.032 122.647 259.552 117.187C258.571 115.668 258.255 113.504 259.109 111.856C259.773 110.564 261.007 109.756 262.336 109.207C266.102 111.404 270.816 112.309 274.455 111.565C274.74 111.501 275.468 111.178 276.195 110.822L275.689 112.341C275.025 113.504 274.329 114.667 273.569 115.765Z" fill="#8D4DBA"/>
<path d="M274.202 95.6999C273.633 94.8599 272.873 94.1168 272.082 93.4707C270.975 92.5661 269.772 91.7907 268.412 91.4353C267.051 91.0799 265.564 91.1446 264.33 91.823C263.096 92.5338 262.21 93.8907 262.273 95.3122C262.305 95.926 262.495 96.5075 262.748 97.0245C263.634 98.7691 265.216 99.6413 266.735 100.74C268.443 101.967 270.152 103.26 271.766 104.649C272.335 105.134 272.905 105.683 273.348 106.329C273.822 106.975 274.772 106.781 275.025 106.038C275.499 104.584 275.753 102.872 275.784 101.58C275.816 99.5444 275.373 97.4122 274.202 95.6999Z" fill="#CB98E2"/>
<path d="M272.683 109.269C271.734 109.592 270.69 109.56 269.677 109.399C267.747 109.043 265.342 107.945 264.108 106.297C263.475 105.457 263.254 104.262 263.792 103.357C264.583 102.097 266.291 102.226 267.462 102.743C269.361 103.583 270.658 105.328 272.208 106.717C272.588 107.072 272.999 107.46 273.474 107.654C273.854 107.815 274.297 107.815 274.645 107.654C274.265 108.397 273.506 108.979 272.683 109.269Z" fill="#E9C9F7"/>
<path d="M268.443 116.926C266.513 117.831 264.425 117.798 262.526 116.474C261.45 115.731 261.134 114.051 261.862 112.92C262.653 111.692 264.361 111.305 265.69 111.078C265.943 111.046 266.197 110.982 266.45 110.949C268.696 111.628 271.006 111.918 273.063 111.725C271.955 113.825 270.531 115.957 268.443 116.926Z" fill="#CB98E2"/>
<path d="M280.815 104.845C280.91 105.718 280.277 106.493 279.423 106.59C278.568 106.687 277.809 106.041 277.714 105.168C277.619 104.296 278.252 103.521 279.106 103.424C279.961 103.327 280.752 103.973 280.815 104.845Z" fill="#853AAD"/>
<path d="M260.564 97.0571C261.672 96.734 263.222 99.1247 263.539 100.256C263.855 101.386 263.222 102.549 262.115 102.872C261.007 103.195 259.868 102.549 259.552 101.419C259.235 100.32 259.457 97.3802 260.564 97.0571Z" fill="#E9C9F7"/>
<path d="M288.662 95.0227C288.662 95.0873 287.966 95.1519 286.922 95.5073C286.795 95.5396 286.669 95.6042 286.511 95.6688C286.384 95.7335 286.226 95.7981 286.099 95.8627C285.814 95.9919 285.498 96.1858 285.182 96.3473C284.58 96.735 283.916 97.2196 283.315 97.8011C282.714 98.3827 282.207 99.0288 281.764 99.6103C281.574 99.9334 281.353 100.192 281.195 100.483C281.1 100.612 281.037 100.773 280.942 100.903C280.878 101.032 280.815 101.161 280.752 101.29C280.245 102.292 280.056 102.97 279.992 102.938C279.961 102.938 280.056 102.227 280.53 101.161C280.594 101.032 280.657 100.903 280.72 100.741C280.783 100.612 280.878 100.45 280.942 100.321C281.1 100.03 281.29 99.7073 281.479 99.3842C281.922 98.7703 282.429 98.0919 283.062 97.4781C283.694 96.8642 284.359 96.3796 285.023 95.9919C285.371 95.8304 285.656 95.6365 285.973 95.5073C286.131 95.4427 286.289 95.3781 286.416 95.3135C286.574 95.2812 286.7 95.2165 286.827 95.1842C287.08 95.0873 287.365 95.055 287.586 95.0227C287.681 94.9904 287.808 94.9904 287.903 94.9581C287.998 94.9581 288.093 94.9581 288.156 94.9258C288.504 94.9904 288.662 94.9904 288.662 95.0227Z" fill="#864CC2"/>
<path d="M289.39 94.8624C289.422 95.0562 289.263 95.2501 289.074 95.2824C288.884 95.3147 288.694 95.1531 288.662 94.9593C288.631 94.7654 288.789 94.5716 288.979 94.5393C289.169 94.507 289.358 94.6685 289.39 94.8624Z" fill="#9647BA"/>
<path d="M276.195 91.3733C276.195 91.341 276.353 91.4379 276.638 91.6318C276.701 91.6641 276.765 91.7287 276.86 91.7933C276.923 91.8579 277.018 91.9225 277.113 91.9871C277.271 92.1487 277.492 92.3102 277.651 92.5364C277.746 92.6333 277.84 92.7625 277.935 92.8594C278.03 92.9887 278.125 93.1179 278.22 93.2471C278.442 93.5056 278.6 93.8287 278.79 94.1517C279.138 94.8302 279.486 95.6056 279.707 96.4455C279.929 97.2855 280.055 98.1255 280.119 98.9009C280.119 99.2886 280.15 99.644 280.119 99.9993C280.119 100.161 280.119 100.322 280.087 100.484C280.055 100.645 280.055 100.775 280.024 100.936C279.897 102.067 279.612 102.745 279.581 102.745C279.517 102.713 279.676 102.035 279.739 100.904C279.739 100.775 279.739 100.613 279.771 100.452C279.771 100.29 279.771 100.129 279.771 99.967C279.771 99.644 279.739 99.2886 279.739 98.9009C279.676 98.1578 279.549 97.3501 279.328 96.5425C279.106 95.7348 278.79 94.9594 278.442 94.3133C278.252 93.9902 278.094 93.6671 277.904 93.4087C277.809 93.2794 277.714 93.1502 277.651 93.021C277.556 92.8918 277.461 92.7948 277.366 92.6656C276.733 91.8579 276.163 91.4379 276.195 91.3733Z" fill="#864CC2"/>
<path d="M275.657 90.8868C275.531 91.0483 275.562 91.2745 275.72 91.4037C275.879 91.5329 276.1 91.5006 276.227 91.3391C276.353 91.1776 276.322 90.9514 276.163 90.8222C276.005 90.6606 275.784 90.6929 275.657 90.8868Z" fill="#9647BA"/>
<path d="M266.529 24.5217C265.82 23.1596 264.309 22.3536 262.776 22.4444C260.807 22.558 259.102 23.8747 258.427 25.6682C258.541 25.759 258.598 25.9066 258.564 26.0541L258.152 27.5865C258.301 27.8476 258.449 28.0746 258.518 28.1541C258.633 28.2676 258.758 28.3811 258.896 28.4946C259.479 28.9714 260.223 29.3573 261.025 29.607C261.54 29.766 262.077 29.8795 262.615 29.9135C263.84 30.0043 265.053 29.7546 265.9 28.9941C267.17 27.8703 267.285 25.9633 266.529 24.5217Z" fill="#BC79DB"/>
<path d="M257.946 29.5607C257.957 31.4904 259.731 33.6812 261.86 32.7958C262.455 32.546 262.981 31.9898 263.062 31.3315C263.119 30.8207 262.913 30.3326 262.627 29.9012C261.059 29.7763 259.468 29.0953 258.529 28.1418C258.449 28.0623 258.301 27.8353 258.163 27.5742L258.014 28.1191C257.957 28.6072 257.934 29.0839 257.946 29.5607Z" fill="#8D4DBA"/>
<path d="M261.745 23.6049C262.089 23.4687 262.455 23.4119 262.821 23.3779C263.325 23.3325 263.851 23.3665 264.321 23.5255C264.801 23.6957 265.236 24.0136 265.465 24.4676C265.694 24.9216 265.682 25.5006 265.385 25.8979C265.259 26.0681 265.087 26.2043 264.893 26.3065C264.286 26.6357 263.622 26.5676 262.959 26.5789C262.203 26.5903 261.436 26.6243 260.681 26.7038C260.418 26.7265 260.132 26.7719 259.868 26.8627C259.605 26.9535 259.353 26.7038 259.434 26.4427C259.582 25.9206 259.846 25.3757 260.097 25.0011C260.509 24.3995 261.07 23.866 261.745 23.6049Z" fill="#CB98E2"/>
<path d="M259.502 27.8498C259.72 28.1336 260.04 28.3379 260.372 28.4855C261.024 28.7693 261.963 28.9396 262.65 28.7125C263.004 28.599 263.313 28.2925 263.325 27.9293C263.336 27.4071 262.81 27.0893 262.352 27.0099C261.62 26.8736 260.876 27.112 260.132 27.2028C259.949 27.2255 259.754 27.2596 259.571 27.2142C259.434 27.1801 259.285 27.1007 259.216 26.9758C259.205 27.2936 259.319 27.6115 259.502 27.8498Z" fill="#E9C9F7"/>
<path d="M259.239 30.9366C259.628 31.595 260.269 31.9923 261.093 32.0036C261.562 32.0036 261.997 31.5836 261.997 31.1069C261.997 30.5961 261.573 30.142 261.219 29.8015C261.15 29.7334 261.081 29.6766 261.013 29.6085C260.211 29.3588 259.456 28.9728 258.884 28.4961C258.815 29.3247 258.815 30.2328 259.239 30.9366Z" fill="#CB98E2"/>
<path d="M265.556 26.7605C265.293 26.4426 264.343 26.8286 264.034 27.0897C263.714 27.3507 263.668 27.8161 263.931 28.134C264.194 28.4518 264.664 28.4972 264.984 28.2361C265.305 27.9637 265.82 27.067 265.556 26.7605Z" fill="#E9C9F7"/>
<path d="M257.042 30.3449C256.71 30.2541 256.515 29.9022 256.63 29.5844L257.122 28.1996L257.305 27.6661L257.831 26.1677C257.877 26.0201 258.014 25.9293 258.163 25.918C258.198 25.918 258.243 25.918 258.278 25.9293C258.312 25.9407 258.358 25.952 258.381 25.9747C258.507 26.0542 258.575 26.2017 258.541 26.3607L257.763 29.9022C257.694 30.2201 257.362 30.4244 257.042 30.3449Z" fill="#9647BA"/>
<path d="M250.094 24.4998C249.682 22.8539 250.667 21.2193 252.109 20.4474C253.471 19.721 255.176 19.9026 256.389 20.822C257.957 22.0139 258.621 24.0571 258.163 25.9074C258.014 25.9187 257.888 26.0095 257.831 26.1571L257.305 27.6554C257.041 27.7917 256.778 27.8938 256.675 27.9165C256.515 27.9506 256.343 27.9733 256.172 27.9846C255.428 28.0527 254.592 27.9506 253.78 27.7122C253.265 27.5646 252.75 27.349 252.292 27.0879C251.227 26.4863 250.369 25.6009 250.094 24.4998Z" fill="#BC79DB"/>
<path d="M256.355 29.4019C255.256 30.9911 252.544 31.8198 251.285 29.9014C250.93 29.3679 250.816 28.6074 251.125 28.0285C251.365 27.5744 251.811 27.2906 252.292 27.0977C253.654 27.8695 255.359 28.1874 256.675 27.9263C256.778 27.9036 257.042 27.7901 257.305 27.6652L257.122 28.1987C256.881 28.6074 256.63 29.016 256.355 29.4019Z" fill="#8D4DBA"/>
<path d="M256.583 22.3543C256.377 22.0592 256.103 21.7981 255.817 21.5711C255.416 21.2533 254.981 20.9808 254.489 20.856C253.997 20.7311 253.459 20.7538 253.013 20.9922C252.566 21.2419 252.246 21.7187 252.269 22.2181C252.28 22.4338 252.349 22.6381 252.44 22.8197C252.761 23.4327 253.333 23.7392 253.882 24.1251C254.5 24.5565 255.118 25.0105 255.702 25.4986C255.908 25.6689 256.114 25.8618 256.274 26.0889C256.446 26.3159 256.789 26.2478 256.881 25.9867C257.053 25.4759 257.144 24.8743 257.156 24.4202C257.167 23.7051 257.007 22.9559 256.583 22.3543Z" fill="#CB98E2"/>
<path d="M256.034 27.1229C255.691 27.2364 255.313 27.2251 254.947 27.1683C254.249 27.0435 253.379 26.6575 252.933 26.0786C252.704 25.7835 252.624 25.3635 252.818 25.0456C253.104 24.6029 253.722 24.6484 254.146 24.83C254.833 25.1251 255.302 25.7381 255.863 26.2262C256 26.351 256.149 26.4872 256.32 26.5554C256.458 26.6121 256.618 26.6121 256.744 26.5554C256.607 26.8164 256.332 27.0208 256.034 27.1229Z" fill="#E9C9F7"/>
<path d="M254.501 29.8109C253.803 30.1287 253.047 30.1174 252.361 29.652C251.972 29.3909 251.857 28.8007 252.12 28.4034C252.406 27.972 253.024 27.8358 253.505 27.7563C253.597 27.745 253.688 27.7223 253.78 27.7109C254.592 27.9493 255.428 28.0515 256.172 27.9834C255.771 28.7212 255.256 29.4704 254.501 29.8109Z" fill="#CB98E2"/>
<path d="M258.976 25.5653C259.01 25.8718 258.781 26.1442 258.472 26.1783C258.163 26.2124 257.888 25.9853 257.854 25.6788C257.82 25.3724 258.049 25.0999 258.358 25.0659C258.667 25.0318 258.953 25.2589 258.976 25.5653Z" fill="#853AAD"/>
<path d="M251.651 22.8308C252.051 22.7173 252.612 23.5572 252.727 23.9545C252.841 24.3518 252.612 24.7605 252.212 24.874C251.811 24.9875 251.399 24.7605 251.284 24.3632C251.17 23.9772 251.25 22.9443 251.651 22.8308Z" fill="#E9C9F7"/>
<path d="M261.814 22.1161C261.814 22.1388 261.562 22.1615 261.185 22.2864C261.139 22.2977 261.093 22.3204 261.036 22.3431C260.99 22.3658 260.933 22.3885 260.887 22.4112C260.784 22.4566 260.67 22.5247 260.555 22.5815C260.338 22.7177 260.097 22.888 259.88 23.0923C259.663 23.2966 259.479 23.5236 259.319 23.728C259.251 23.8415 259.17 23.9323 259.113 24.0344C259.079 24.0798 259.056 24.1366 259.022 24.182C258.999 24.2274 258.976 24.2728 258.953 24.3182C258.77 24.6701 258.701 24.9085 258.678 24.8971C258.667 24.8971 258.701 24.6474 258.873 24.2728C258.896 24.2274 258.919 24.182 258.941 24.1252C258.964 24.0798 258.999 24.0231 259.022 23.9777C259.079 23.8755 259.148 23.762 259.216 23.6485C259.376 23.4328 259.56 23.1944 259.788 22.9788C260.017 22.7631 260.258 22.5928 260.498 22.4566C260.624 22.3999 260.727 22.3318 260.841 22.2864C260.899 22.2637 260.956 22.2409 261.002 22.2182C261.059 22.2069 261.105 22.1842 261.15 22.1728C261.242 22.1388 261.345 22.1274 261.425 22.1161C261.459 22.1047 261.505 22.1047 261.539 22.0934C261.574 22.0934 261.608 22.0934 261.631 22.082C261.757 22.1047 261.814 22.1047 261.814 22.1161Z" fill="#864CC2"/>
<path d="M262.077 22.0603C262.089 22.1284 262.031 22.1965 261.963 22.2078C261.894 22.2192 261.825 22.1624 261.814 22.0943C261.803 22.0262 261.86 21.9581 261.928 21.9468C261.997 21.9354 262.066 21.9922 262.077 22.0603Z" fill="#9647BA"/>
<path d="M257.305 20.8342C257.305 20.8228 257.362 20.8569 257.465 20.925C257.488 20.9363 257.511 20.959 257.545 20.9817C257.568 21.0045 257.602 21.0272 257.637 21.0499C257.694 21.1066 257.774 21.1634 257.831 21.2428C257.865 21.2769 257.9 21.3223 257.934 21.3563C257.968 21.4017 258.003 21.4471 258.037 21.4926C258.117 21.5834 258.174 21.6969 258.243 21.8104C258.369 22.0488 258.495 22.3212 258.575 22.6163C258.655 22.9114 258.701 23.2066 258.724 23.479C258.724 23.6152 258.735 23.7401 258.724 23.8649C258.724 23.9217 258.724 23.9785 258.712 24.0352C258.701 24.092 258.701 24.1374 258.689 24.1941C258.644 24.5914 258.541 24.8298 258.529 24.8298C258.506 24.8184 258.564 24.5801 258.586 24.1828C258.586 24.1374 258.586 24.0806 258.598 24.0239C258.598 23.9671 258.598 23.9104 258.598 23.8536C258.598 23.7401 258.586 23.6152 258.586 23.479C258.564 23.2179 258.518 22.9342 258.438 22.6504C258.358 22.3666 258.243 22.0942 258.117 21.8671C258.049 21.7536 257.991 21.6401 257.923 21.5493C257.888 21.5039 257.854 21.4585 257.831 21.4131C257.797 21.3677 257.762 21.3336 257.728 21.2882C257.499 21.0045 257.293 20.8569 257.305 20.8342Z" fill="#864CC2"/>
<path d="M257.11 20.6645C257.064 20.7213 257.076 20.8007 257.133 20.8461C257.19 20.8915 257.271 20.8802 257.316 20.8234C257.362 20.7667 257.351 20.6872 257.293 20.6418C257.236 20.5851 257.156 20.5964 257.11 20.6645Z" fill="#9647BA"/>
<path d="M220.803 61.4847C222.013 59.2302 224.591 57.8963 227.207 58.0466C230.565 58.2345 233.474 60.4138 234.626 63.3822C234.43 63.5325 234.333 63.7767 234.391 64.021L235.094 66.5572C234.84 66.9894 234.587 67.3651 234.469 67.4966C234.274 67.6845 234.059 67.8723 233.825 68.0602C232.83 68.8493 231.56 69.488 230.194 69.9014C229.315 70.1644 228.398 70.3523 227.48 70.4086C225.391 70.5589 223.322 70.1456 221.877 68.8869C219.71 67.0269 219.514 63.8707 220.803 61.4847Z" fill="#BC79DB"/>
<path d="M235.446 69.8268C235.426 73.0206 232.4 76.6466 228.769 75.1812C227.754 74.7679 226.855 73.8473 226.719 72.7576C226.621 71.9122 226.973 71.1044 227.461 70.3904C230.135 70.1838 232.849 69.0565 234.45 67.4784C234.587 67.3469 234.841 66.9712 235.075 66.5391L235.329 67.4408C235.426 68.2487 235.465 69.0378 235.446 69.8268Z" fill="#8D4DBA"/>
<path d="M228.964 59.965C228.378 59.7395 227.754 59.6456 227.129 59.5892C226.27 59.5141 225.372 59.5704 224.571 59.8335C223.751 60.1153 223.009 60.6413 222.619 61.3928C222.228 62.1443 222.248 63.1024 222.756 63.76C222.97 64.0418 223.263 64.2672 223.595 64.4363C224.63 64.9812 225.762 64.8684 226.895 64.8872C228.183 64.906 229.491 64.9624 230.78 65.0939C231.229 65.1315 231.717 65.2066 232.166 65.3569C232.615 65.5072 233.044 65.0939 232.908 64.6618C232.654 63.7976 232.205 62.8958 231.775 62.2758C231.073 61.2801 230.116 60.3971 228.964 59.965Z" fill="#CB98E2"/>
<path d="M232.79 66.9895C232.419 67.4592 231.873 67.7974 231.307 68.0416C230.194 68.5113 228.593 68.7931 227.421 68.4174C226.816 68.2295 226.289 67.7222 226.269 67.121C226.25 66.2568 227.148 65.7308 227.929 65.5993C229.178 65.3738 230.448 65.7684 231.717 65.9187C232.029 65.9562 232.361 66.0126 232.673 65.9374C232.907 65.8811 233.161 65.7496 233.278 65.5429C233.298 66.069 233.103 66.595 232.79 66.9895Z" fill="#E9C9F7"/>
<path d="M233.24 72.1017C232.576 73.1914 231.482 73.849 230.077 73.8677C229.276 73.8677 228.534 73.1726 228.534 72.3836C228.534 71.5381 229.257 70.7866 229.862 70.223C229.979 70.1103 230.096 70.0164 230.213 69.9036C231.58 69.4903 232.869 68.8516 233.845 68.0625C233.962 69.434 233.962 70.9369 233.24 72.1017Z" fill="#CB98E2"/>
<path d="M222.462 65.1866C222.911 64.6606 224.532 65.2994 225.059 65.7315C225.606 66.1636 225.684 66.9338 225.235 67.4599C224.786 67.9859 223.985 68.0611 223.439 67.629C222.892 67.1781 222.013 65.6939 222.462 65.1866Z" fill="#E9C9F7"/>
<path d="M236.988 71.1239C237.554 70.9736 237.886 70.3912 237.691 69.8651L236.851 67.5731L236.539 66.6901L235.641 64.2102C235.563 63.966 235.328 63.8157 235.075 63.7969C235.016 63.7969 234.938 63.7969 234.879 63.8157C234.821 63.8345 234.743 63.8532 234.704 63.8908C234.489 64.0223 234.372 64.2666 234.43 64.5296L235.758 70.3912C235.875 70.9172 236.441 71.2554 236.988 71.1239Z" fill="#9647BA"/>
<path d="M248.839 61.4476C249.542 58.7234 247.863 56.0181 245.403 54.7406C243.079 53.5382 240.17 53.8388 238.101 55.3605C235.426 57.3332 234.294 60.7149 235.075 63.7772C235.329 63.796 235.543 63.9463 235.641 64.1905L236.539 66.6704C236.988 66.8959 237.437 67.065 237.613 67.1025C237.886 67.1589 238.179 67.1965 238.472 67.2153C239.741 67.328 241.166 67.1589 242.552 66.7644C243.431 66.5201 244.309 66.1632 245.09 65.7311C246.906 64.7354 248.37 63.2699 248.839 61.4476Z" fill="#BC79DB"/>
<path d="M238.16 69.5638C240.034 72.194 244.661 73.5655 246.809 70.3904C247.414 69.5074 247.609 68.2487 247.082 67.2906C246.672 66.5391 245.91 66.0694 245.09 65.75C242.767 67.0275 239.858 67.5536 237.613 67.1215C237.437 67.0839 236.988 66.896 236.539 66.6894L236.852 67.5724C237.262 68.2487 237.691 68.925 238.16 69.5638Z" fill="#8D4DBA"/>
<path d="M237.769 57.8965C238.12 57.4081 238.589 56.976 239.077 56.6002C239.76 56.0742 240.502 55.6233 241.342 55.4166C242.181 55.21 243.099 55.2475 243.86 55.6421C244.622 56.0554 245.168 56.8445 245.129 57.6711C245.11 58.0281 244.993 58.3662 244.837 58.6668C244.29 59.6813 243.314 60.1886 242.377 60.8273C241.322 61.5413 240.268 62.2927 239.272 63.1006C238.921 63.3824 238.569 63.7018 238.296 64.0775C238.003 64.4533 237.418 64.3406 237.261 63.9084C236.969 63.063 236.812 62.0673 236.793 61.3158C236.773 60.1322 237.047 58.8923 237.769 57.8965Z" fill="#CB98E2"/>
<path d="M238.706 65.7888C239.292 65.9766 239.936 65.9579 240.561 65.8639C241.752 65.6573 243.235 65.0185 243.997 64.0603C244.387 63.5719 244.524 62.8768 244.192 62.3507C243.704 61.618 242.65 61.6932 241.927 61.9938C240.756 62.4822 239.956 63.4967 238.999 64.3046C238.765 64.5112 238.511 64.7367 238.218 64.8494C237.984 64.9433 237.71 64.9433 237.496 64.8494C237.73 65.2815 238.198 65.6197 238.706 65.7888Z" fill="#E9C9F7"/>
<path d="M241.322 70.2413C242.513 70.7673 243.802 70.7485 244.973 69.9782C245.637 69.5461 245.832 68.5692 245.383 67.9116C244.895 67.1977 243.841 66.9723 243.021 66.8408C242.865 66.822 242.708 66.7844 242.552 66.7656C241.166 67.1602 239.741 67.3292 238.472 67.2165C239.155 68.4377 240.034 69.6776 241.322 70.2413Z" fill="#CB98E2"/>
<path d="M233.689 63.215C233.63 63.7223 234.021 64.1732 234.548 64.2296C235.075 64.2859 235.544 63.9102 235.602 63.4029C235.661 62.8957 235.27 62.4448 234.743 62.3884C234.216 62.3321 233.728 62.7078 233.689 63.215Z" fill="#853AAD"/>
<path d="M246.184 58.6853C245.5 58.4974 244.544 59.8876 244.348 60.5452C244.153 61.2027 244.544 61.8791 245.227 62.067C245.91 62.2548 246.613 61.8791 246.808 61.2215C247.004 60.5828 246.867 58.8731 246.184 58.6853Z" fill="#E9C9F7"/>
<path d="M228.847 57.5017C228.847 57.5392 229.276 57.5768 229.921 57.7835C229.999 57.8023 230.077 57.8398 230.174 57.8774C230.253 57.915 230.35 57.9526 230.428 57.9901C230.604 58.0653 230.799 58.178 230.994 58.272C231.365 58.4974 231.775 58.7792 232.146 59.1174C232.517 59.4555 232.83 59.8313 233.103 60.1695C233.22 60.3573 233.357 60.5076 233.454 60.6767C233.513 60.7519 233.552 60.8458 233.611 60.9209C233.65 60.9961 233.689 61.0712 233.728 61.1464C234.04 61.7288 234.157 62.1233 234.196 62.1045C234.216 62.1045 234.157 61.6912 233.864 61.0712C233.825 60.9961 233.786 60.9209 233.747 60.827C233.708 60.7519 233.65 60.6579 233.611 60.5828C233.513 60.4137 233.396 60.2258 233.279 60.0379C233.005 59.681 232.693 59.2865 232.303 58.9295C231.912 58.5725 231.502 58.2907 231.092 58.0653C230.877 57.9714 230.702 57.8586 230.506 57.7835C230.409 57.7459 230.311 57.7083 230.233 57.6708C230.135 57.652 230.057 57.6144 229.979 57.5956C229.823 57.5392 229.647 57.5205 229.511 57.5017C229.452 57.4829 229.374 57.4829 229.315 57.4641C229.257 57.4641 229.198 57.4641 229.159 57.4453C228.944 57.4829 228.847 57.4829 228.847 57.5017Z" fill="#864CC2"/>
<path d="M228.398 57.409C228.378 57.5218 228.476 57.6345 228.593 57.6533C228.71 57.672 228.827 57.5781 228.847 57.4654C228.866 57.3527 228.769 57.2399 228.651 57.2212C228.534 57.2024 228.417 57.2963 228.398 57.409Z" fill="#9647BA"/>
<path d="M236.539 55.3786C236.539 55.3598 236.441 55.4161 236.265 55.5289C236.226 55.5476 236.187 55.5852 236.129 55.6228C236.09 55.6604 236.031 55.6979 235.973 55.7355C235.875 55.8295 235.738 55.9234 235.641 56.0549C235.582 56.1113 235.524 56.1864 235.465 56.2428C235.406 56.3179 235.348 56.3931 235.289 56.4682C235.153 56.6185 235.055 56.8064 234.938 56.9943C234.723 57.3888 234.508 57.8397 234.372 58.3281C234.235 58.8166 234.157 59.3051 234.118 59.756C234.118 59.9814 234.098 60.1881 234.118 60.3947C234.118 60.4887 234.118 60.5826 234.137 60.6765C234.157 60.7705 234.157 60.8456 234.176 60.9396C234.255 61.5971 234.43 61.9917 234.45 61.9917C234.489 61.9729 234.391 61.5783 234.352 60.9208C234.352 60.8456 234.352 60.7517 234.333 60.6578C234.333 60.5638 234.333 60.4699 234.333 60.376C234.333 60.1881 234.352 59.9814 234.352 59.756C234.391 59.3239 234.469 58.8542 234.606 58.3845C234.743 57.9148 234.938 57.4639 235.153 57.0882C235.27 56.9003 235.367 56.7125 235.485 56.5622C235.543 56.487 235.602 56.4119 235.641 56.3367C235.699 56.2616 235.758 56.2052 235.816 56.13C236.207 55.6604 236.558 55.4161 236.539 55.3786Z" fill="#864CC2"/>
<path d="M236.871 55.0977C236.949 55.1917 236.929 55.3232 236.832 55.3983C236.734 55.4735 236.597 55.4547 236.519 55.3607C236.441 55.2668 236.461 55.1353 236.558 55.0601C236.656 54.9662 236.793 54.985 236.871 55.0977Z" fill="#9647BA"/>
<path d="M20.1709 28.499H26.4658C28.8219 28.499 30.6481 29.1615 31.9443 30.4863C33.2477 31.8112 33.8994 33.7018 33.8994 36.1582C33.8994 38.6289 33.2441 40.5553 31.9336 41.9375C30.6302 43.3125 28.8076 44 26.4658 44H20.1709V28.499ZM24.1133 31.6787V40.8203H25.9502C27.2393 40.8203 28.2168 40.43 28.8828 39.6494C29.556 38.8688 29.8926 37.7087 29.8926 36.1689C29.8926 34.7223 29.5488 33.6123 28.8613 32.8389C28.1738 32.0654 27.2035 31.6787 25.9502 31.6787H24.1133ZM45.5654 42.668C44.4984 43.7422 43.0374 44.2793 41.1826 44.2793C39.3278 44.2793 37.8669 43.7422 36.7998 42.668C35.7327 41.5866 35.1992 40.0791 35.1992 38.1455C35.1992 36.2477 35.7399 34.7546 36.8213 33.666C37.9027 32.5703 39.3564 32.0225 41.1826 32.0225C43.0231 32.0225 44.4805 32.5667 45.5547 33.6553C46.6289 34.7438 47.166 36.2406 47.166 38.1455C47.166 40.0863 46.6325 41.5938 45.5654 42.668ZM39.625 40.6162C40.0046 41.1963 40.5238 41.4863 41.1826 41.4863C41.8415 41.4863 42.3607 41.1963 42.7402 40.6162C43.1198 40.0361 43.3096 39.2161 43.3096 38.1562C43.3096 37.1107 43.1162 36.2943 42.7295 35.707C42.3499 35.1126 41.8343 34.8154 41.1826 34.8154C40.5309 34.8154 40.0153 35.1126 39.6357 35.707C39.2562 36.2943 39.0664 37.1107 39.0664 38.1562C39.0664 39.2161 39.2526 40.0361 39.625 40.6162ZM48.6377 44V32.3018H52.3438V34.5576H52.4189C52.6481 33.7985 53.0635 33.1969 53.665 32.7529C54.2666 32.3018 54.9648 32.0762 55.7598 32.0762C56.6335 32.0762 57.3532 32.2946 57.9189 32.7314C58.4847 33.1611 58.8499 33.7734 59.0146 34.5684H59.0898C59.319 33.8164 59.7594 33.2148 60.4111 32.7637C61.07 32.3053 61.8327 32.0762 62.6992 32.0762C63.8451 32.0762 64.7725 32.445 65.4814 33.1826C66.1904 33.9131 66.5449 34.8727 66.5449 36.0615V44H62.7314V37.0283C62.7314 35.7894 62.1836 35.1699 61.0879 35.1699C60.5723 35.1699 60.1641 35.3418 59.8633 35.6855C59.5625 36.0293 59.4121 36.4876 59.4121 37.0605V44H55.7705V36.9854C55.7705 36.3981 55.6309 35.9505 55.3516 35.6426C55.0723 35.3275 54.6712 35.1699 54.1484 35.1699C53.6328 35.1699 53.221 35.3454 52.9131 35.6963C52.6051 36.0472 52.4512 36.5091 52.4512 37.082V44H48.6377Z" fill="#4A9000"/>
<circle cx="339" cy="37" r="17" fill="#4A9000"/>
<path d="M337.825 38.1744H330.774V35.8241H337.825V28.7734H340.175V35.8241H347.226V38.1744H340.175V45.225H337.825V38.1744Z" fill="white"/>
</g>
<defs>
<clipPath id="clip0_2980_2889">
<rect width="376" height="166" fill="white"/>
</clipPath>
</defs>
</svg>
