<svg width="356" height="305" viewBox="0 0 356 305" fill="none" xmlns="http://www.w3.org/2000/svg">
<path d="M103.178 36.8945H53.9963C44.5655 36.8945 36.9204 44.5397 36.9204 53.9704V140.628C36.9204 150.059 44.5655 157.704 53.9963 157.704H103.178C112.608 157.704 120.254 150.059 120.254 140.628V53.9704C120.254 44.5397 112.608 36.8945 103.178 36.8945Z" fill="#503C6F"/>
<path d="M97.8934 147.654H35.3602C33.7836 147.655 32.2223 147.345 30.7656 146.742C29.3088 146.139 27.9851 145.255 26.8703 144.14C25.7555 143.025 24.8714 141.702 24.2685 140.245C23.6657 138.788 23.3559 137.227 23.3569 135.65V60.0555L56.4581 22.2031H96.8193C100.289 22.2052 103.616 23.5845 106.07 26.038C108.523 28.4915 109.903 31.8186 109.905 35.2884V135.643C109.906 137.22 109.596 138.783 108.992 140.24C108.389 141.698 107.504 143.022 106.389 144.138C105.273 145.254 103.949 146.138 102.491 146.741C101.033 147.345 99.4711 147.655 97.8934 147.654Z" fill="#E6E6FF"/>
<path d="M94.6399 52.7152H40.3859C39.35 52.703 38.36 52.286 37.6275 51.5535C36.895 50.821 36.478 49.831 36.4658 48.7951C36.478 47.7592 36.895 46.7692 37.6275 46.0367C38.36 45.3041 39.35 44.8872 40.3859 44.875H94.6399C95.6758 44.8872 96.6658 45.3041 97.3983 46.0367C98.1308 46.7692 98.5478 47.7592 98.56 48.7951C98.5478 49.831 98.1308 50.821 97.3983 51.5535C96.6658 52.286 95.6758 52.703 94.6399 52.7152Z" fill="#A595FA"/>
<path d="M94.6399 76.4575H40.3859C39.3433 76.4451 38.3475 76.0228 37.6138 75.2818C36.8802 74.5409 36.4678 73.5409 36.4658 72.4982C36.478 71.4623 36.895 70.4723 37.6275 69.7398C38.36 69.0073 39.35 68.5903 40.3859 68.5781H94.6399C95.6758 68.5903 96.6658 69.0073 97.3983 69.7398C98.1308 70.4723 98.5478 71.4623 98.56 72.4982C98.558 73.5409 98.1456 74.5409 97.412 75.2818C96.6783 76.0228 95.6825 76.4451 94.6399 76.4575Z" fill="#A595FA"/>
<path d="M94.6399 100.188H40.3859C39.3433 100.176 38.3475 99.7533 37.6138 99.0123C36.8802 98.2714 36.4678 97.2714 36.4658 96.2287C36.478 95.1928 36.895 94.2028 37.6275 93.4703C38.36 92.7377 39.35 92.3208 40.3859 92.3086H94.6399C95.6758 92.3208 96.6658 92.7377 97.3983 93.4703C98.1308 94.2028 98.5478 95.1928 98.56 96.2287C98.558 97.2714 98.1456 98.2714 97.412 99.0123C96.6783 99.7533 95.6825 100.176 94.6399 100.188Z" fill="#A595FA"/>
<path d="M94.6399 123.922H40.3859C39.35 123.91 38.36 123.493 37.6275 122.761C36.895 122.028 36.478 121.038 36.4658 120.002C36.4678 118.96 36.8802 117.96 37.6138 117.219C38.3475 116.478 39.3433 116.055 40.3859 116.043H94.6399C95.6825 116.055 96.6783 116.478 97.412 117.219C98.1456 117.96 98.558 118.96 98.56 120.002C98.5478 121.038 98.1308 122.028 97.3983 122.761C96.6658 123.493 95.6758 123.91 94.6399 123.922Z" fill="#A595FA"/>
<path opacity="0.67" d="M278.335 94.6672C273.425 97.0066 267.789 97.3089 262.657 95.5081C257.525 93.7073 253.313 89.9496 250.942 85.0551C248.6 80.1454 248.297 74.5086 250.098 69.3759C251.899 64.2432 255.658 60.0318 260.554 57.6616C265.462 55.3174 271.099 55.0117 276.232 56.8114C281.365 58.6111 285.577 62.3698 287.947 67.2658C290.289 72.1767 290.593 77.8147 288.792 82.9486C286.991 88.0826 283.232 92.2954 278.335 94.6672Z" fill="#DBCCFF"/>
<path d="M109.677 269.585C107.375 269.579 105.169 268.661 103.541 267.034C101.914 265.406 100.996 263.2 100.99 260.898C100.999 258.597 101.917 256.393 103.544 254.767C105.172 253.141 107.376 252.225 109.677 252.219C111.983 252.217 114.196 253.129 115.83 254.756C117.465 256.383 118.387 258.592 118.395 260.898C118.389 263.205 117.468 265.416 115.833 267.045C114.199 268.673 111.985 269.587 109.677 269.585Z" fill="#DBCCFF"/>
<path opacity="0.67" d="M292.706 111.096C290.879 111.091 289.128 110.364 287.835 109.073C286.542 107.782 285.813 106.031 285.807 104.204C285.813 102.377 286.542 100.626 287.835 99.3351C289.128 98.0438 290.879 97.3166 292.706 97.3125C294.532 97.3187 296.281 98.0468 297.572 99.3378C298.863 100.629 299.591 102.378 299.597 104.204C299.591 106.03 298.863 107.779 297.572 109.07C296.281 110.361 294.532 111.089 292.706 111.096Z" fill="#DBCCFF"/>
<path opacity="0.67" d="M299.331 188.766C296.771 179.7 292.414 171.242 286.52 163.893C280.626 156.545 273.315 150.456 265.021 145.989C256.727 141.522 247.62 138.768 238.241 137.891C228.861 137.014 219.401 138.032 210.423 140.883C201.445 143.735 193.131 148.362 185.977 154.49C178.822 160.619 172.973 168.123 168.776 176.557C164.58 184.991 162.122 194.182 161.548 203.585C160.974 212.988 162.297 222.41 165.437 231.291H39.0295C29.9934 231.318 21.3351 234.92 14.9463 241.311C8.5575 247.701 4.95744 256.36 4.93262 265.396C4.9595 274.431 8.56048 283.088 14.9491 289.477C21.3377 295.865 29.9947 299.466 39.0295 299.493H218.891C225.281 299.476 231.539 297.669 236.954 294.276C242.37 290.884 246.726 286.042 249.53 280.3H297.41C309.392 280.307 320.899 275.617 329.462 267.237C338.025 258.856 342.962 247.453 343.213 235.474C343.465 223.495 339.011 211.895 330.807 203.163C322.603 194.43 311.302 189.262 299.331 188.766Z" fill="#DBCCFF"/>
<path opacity="0.67" d="M317.105 163.951C321.289 163.939 325.298 162.271 328.256 159.313C331.215 156.354 332.882 152.345 332.895 148.161C332.882 143.977 331.215 139.968 328.256 137.01C325.298 134.051 321.289 132.384 317.105 132.371C312.921 132.384 308.912 134.051 305.953 137.01C302.994 139.968 301.327 143.977 301.314 148.161C301.327 152.345 302.994 156.354 305.953 159.313C308.912 162.271 312.921 163.939 317.105 163.951Z" fill="#DBCCFF"/>
<path opacity="0.67" d="M26.289 213.307C22.8134 213.297 19.4832 211.912 17.0256 209.454C14.5679 206.997 13.1827 203.666 13.1724 200.191C13.1827 196.716 14.5682 193.387 17.026 190.93C19.4839 188.474 22.8141 187.09 26.289 187.082C29.7638 187.09 33.0941 188.474 35.5519 190.93C38.0097 193.387 39.3952 196.716 39.4056 200.191C39.3952 203.666 38.01 206.997 35.5524 209.454C33.0948 211.912 29.7645 213.297 26.289 213.307Z" fill="#DBCCFF"/>
<path d="M237.378 154.066C237.378 154.066 214.642 140.738 200.13 113.297C200.13 113.297 177.393 101.537 157.009 101.027H156.624C136.24 101.513 115.855 110.436 115.855 110.436C103.797 141.247 73.5186 153.815 73.5186 153.815C61.9935 246.031 150.188 295.816 156.624 299.509V299.729L156.813 299.619L157.009 299.729V299.509C163.437 295.809 248.911 246.282 237.378 154.066Z" fill="#A595FA"/>
<path d="M155.017 138.05C162.21 138.236 169.381 138.933 176.475 140.135C182.528 154.444 196.421 166.165 204.3 171.974C205.413 193.041 197.832 213.182 181.713 231.928C174.342 240.416 165.955 247.965 156.742 254.406C146.629 247.753 137.36 239.9 129.136 231.019C112.358 212.657 104.173 193.056 104.746 172.782C114.154 167.788 129.701 157.368 137.674 139.853L154.978 138.073M154.499 125.082L128.297 127.787C121.241 153.714 92.3659 164.252 92.3659 164.252C84.3219 228.612 152.226 267.099 156.718 269.678V269.827L156.851 269.757L156.992 269.827V269.678C161.516 267.075 224.708 229.121 216.664 164.769C216.664 164.769 189.38 147.481 186.683 129.112C186.683 129.112 175.064 125.6 154.539 125.059L154.499 125.082Z" fill="#D9D7FF"/>
<path d="M237.378 154.066C237.378 154.066 214.642 140.738 200.13 113.297C200.13 113.297 177.393 101.537 157.009 101.027H156.624C136.24 101.513 115.855 110.436 115.855 110.436C103.797 141.247 73.5186 153.815 73.5186 153.815C61.9935 246.031 150.188 295.816 156.624 299.509V299.729L156.813 299.619L157.009 299.729V299.509C163.437 295.809 248.911 246.282 237.378 154.066Z" fill="#A595FA"/>
<path d="M237.378 154.066C237.378 154.066 214.642 140.738 200.129 113.297C200.129 113.297 177.393 101.537 157.009 101.027H156.624H156.107V299.203L156.624 299.501V299.721L156.813 299.611L157.009 299.721V299.501C163.437 295.809 248.911 246.282 237.378 154.066Z" fill="#8076E2"/>
<path d="M155.017 138.05C162.21 138.236 169.381 138.933 176.475 140.135C182.528 154.436 196.413 166.165 204.292 171.974C205.398 193.096 197.675 213.488 181.289 232.673C173.886 241.256 165.488 248.928 156.271 255.527C146.881 248.814 138.229 241.124 130.461 232.586C112.907 213.104 104.283 193.056 104.761 172.774C114.216 167.772 129.709 157.36 137.69 139.845L154.993 138.065M154.515 125.074L128.313 127.779C121.257 153.707 92.3816 164.244 92.3816 164.244C84.3376 228.604 156.208 271.097 156.208 271.097C160.701 268.526 224.684 229.145 216.64 164.785C216.64 164.785 189.357 147.497 186.66 129.128C186.66 129.128 175.04 125.615 154.515 125.074Z" fill="#D9D7FF"/>
<path d="M100.23 227.34H52.3973C45.0103 227.34 39.022 233.328 39.022 240.715V285.365C39.022 292.752 45.0103 298.74 52.3973 298.74H100.23C107.617 298.74 113.606 292.752 113.606 285.365V240.715C113.606 233.328 107.617 227.34 100.23 227.34Z" fill="#FF7171"/>
<path d="M87.654 227.34H39.8211C32.4341 227.34 26.4458 233.328 26.4458 240.715V285.365C26.4458 292.752 32.4341 298.74 39.8211 298.74H87.654C95.041 298.74 101.029 292.752 101.029 285.365V240.715C101.029 233.328 95.041 227.34 87.654 227.34Z" fill="#FFA9A9"/>
<path d="M69.7866 275.605C56.5132 275.605 45.7173 264.629 45.7173 251.144V219.407C45.7173 205.922 56.5132 194.945 69.7866 194.945C83.06 194.945 93.8481 205.922 93.8481 219.407V251.144C93.8716 264.629 83.1149 275.605 69.7866 275.605ZM69.7866 203.319C65.5557 203.358 61.5131 205.074 58.5456 208.09C55.5781 211.106 53.9281 215.176 53.9573 219.407V251.144C53.9573 255.342 55.625 259.368 58.5936 262.337C61.5622 265.305 65.5884 266.973 69.7866 266.973C73.9848 266.973 78.011 265.305 80.9796 262.337C83.9482 259.368 85.6159 255.342 85.6159 251.144V219.407C85.6452 215.176 83.9951 211.106 81.0276 208.09C78.0601 205.074 74.0175 203.358 69.7866 203.319Z" fill="#FFA9A9"/>
<path d="M73.8557 257.854C73.8484 260.693 72.7215 263.415 70.7197 265.428C69.5798 266.589 68.1873 267.472 66.6506 268.007C65.5614 268.386 64.4166 268.579 63.2637 268.58H63.1382C62.0276 268.569 60.9261 268.379 59.8767 268.015C58.1717 267.403 56.6484 266.371 55.4477 265.015C54.2469 263.658 53.4073 262.021 53.0065 260.254C52.6056 258.488 52.6565 256.649 53.1543 254.907C53.6521 253.165 54.5808 251.577 55.8547 250.289C56.8234 249.294 57.9817 248.505 59.261 247.966C60.5404 247.427 61.9148 247.151 63.3029 247.152C63.5796 247.137 63.8571 247.137 64.1339 247.152C66.6499 247.358 69.0049 248.473 70.7589 250.289C72.7473 252.304 73.8602 255.023 73.8557 257.854Z" fill="#FF7171"/>
<path d="M66.6898 266.008V277.988C66.6854 278.56 66.54 279.121 66.2665 279.623C65.9929 280.125 65.5997 280.552 65.1218 280.865C64.5732 281.236 63.9257 281.433 63.2637 281.43C62.3591 281.42 61.4953 281.052 60.8608 280.407C60.2263 279.762 59.8725 278.893 59.8767 277.988V266.008C59.8731 265.974 59.8731 265.94 59.8767 265.906C59.897 265.02 60.2607 264.176 60.8912 263.553C61.5216 262.93 62.3694 262.576 63.2558 262.566C63.6953 262.571 64.1294 262.663 64.5331 262.837C64.9368 263.01 65.3021 263.262 65.6079 263.578C65.9405 263.891 66.2074 264.267 66.3932 264.684C66.5789 265.102 66.6798 265.552 66.6898 266.008Z" fill="#FF7171"/>
<path d="M73.8554 257.854C73.8481 260.693 72.7212 263.415 70.7194 265.428C69.5795 266.589 68.187 267.472 66.6503 268.007V277.988C66.6459 278.559 66.5005 279.121 66.227 279.623C65.9534 280.125 65.5602 280.552 65.0823 280.865C64.4884 280.584 63.9866 280.14 63.6354 279.585C63.2842 279.03 63.0981 278.386 63.0987 277.729V267.748C61.0329 267.018 59.2406 265.672 57.9634 263.891C56.9333 262.462 56.2699 260.802 56.0315 259.056C55.7932 257.311 55.9872 255.534 56.5965 253.881C57.2058 252.228 58.2118 250.75 59.526 249.577C60.8402 248.403 62.4224 247.571 64.1336 247.152C66.6496 247.358 69.0046 248.473 70.7586 250.288C72.747 252.304 73.8599 255.023 73.8554 257.854Z" fill="#503C6F"/>
<path d="M82.8013 235.48C82.8013 235.48 96.9136 233.52 95.3455 251.553" stroke="white" stroke-width="5.85661" stroke-linecap="round" stroke-linejoin="round"/>
<path d="M94.1694 264.094V270.366" stroke="white" stroke-width="5.85661" stroke-linecap="round" stroke-linejoin="round"/>
<path d="M220.961 99.9051L266.504 134.715C267.189 135.235 268.052 135.462 268.904 135.348C269.756 135.233 270.528 134.786 271.051 134.104C271.57 133.42 271.798 132.559 271.683 131.708C271.568 130.857 271.121 130.086 270.44 129.564L224.896 94.7541C224.213 94.2362 223.352 94.0091 222.502 94.1222C221.652 94.2352 220.881 94.6793 220.357 95.3578C219.838 96.0426 219.611 96.9042 219.724 97.7555C219.837 98.6069 220.281 99.3793 220.961 99.9051Z" fill="#503C6F"/>
<path d="M250.941 114.652L270.44 129.549C270.793 129.801 271.091 130.121 271.318 130.49C271.545 130.86 271.695 131.271 271.76 131.7C271.824 132.128 271.802 132.566 271.695 132.985C271.588 133.405 271.397 133.8 271.135 134.145C270.872 134.49 270.543 134.778 270.167 134.994C269.791 135.209 269.375 135.347 268.945 135.398C268.514 135.45 268.078 135.415 267.661 135.295C267.245 135.175 266.857 134.973 266.52 134.7L246.778 119.607C248.132 117.95 249.52 116.299 250.941 114.652Z" fill="#503C6F"/>
<path opacity="0.73" d="M165.648 78.9188C165.65 84.8745 167.417 90.696 170.727 95.6472C174.037 100.598 178.741 104.457 184.244 106.735C189.747 109.013 195.801 109.608 201.642 108.445C207.483 107.283 212.848 104.414 217.059 100.202C221.27 95.9902 224.137 90.6244 225.299 84.7831C226.46 78.9417 225.863 72.8872 223.584 67.385C221.304 61.8828 217.444 57.1801 212.492 53.8715C207.54 50.5628 201.718 48.7969 195.763 48.7969C187.775 48.799 180.115 51.9734 174.468 57.6222C168.821 63.2709 165.648 70.9313 165.648 78.9188Z" fill="#C2C0F2"/>
<path d="M163.625 78.9182C163.625 72.5605 165.511 66.3457 169.043 61.0595C172.575 55.7733 177.595 51.6533 183.469 49.2203C189.343 46.7874 195.806 46.1508 202.041 47.3911C208.277 48.6314 214.004 51.6929 218.5 56.1884C222.995 60.6839 226.057 66.4116 227.297 72.647C228.538 78.8825 227.901 85.3457 225.468 91.2194C223.035 97.0931 218.915 102.113 213.629 105.645C208.343 109.178 202.128 111.063 195.77 111.063C187.245 111.063 179.069 107.676 173.04 101.648C167.012 95.6196 163.625 87.4435 163.625 78.9182ZM167.663 78.9182C167.663 84.4756 169.311 89.9083 172.399 94.5292C175.486 99.1501 179.875 102.752 185.009 104.878C190.144 107.005 195.794 107.562 201.244 106.477C206.695 105.393 211.702 102.717 215.631 98.7873C219.561 94.8575 222.237 89.8507 223.322 84.4C224.406 78.9493 223.849 73.2995 221.723 68.1651C219.596 63.0306 215.994 58.6421 211.373 55.5545C206.753 52.467 201.32 50.819 195.762 50.819C188.313 50.8273 181.17 53.7904 175.902 59.0582C170.635 64.326 167.671 71.4683 167.663 78.9182Z" fill="#503C6F" stroke="#503C6F" stroke-width="4.86875" stroke-linecap="round" stroke-linejoin="round"/>
<path d="M270.675 126.949L244.442 107.098C244.332 107.45 237.511 116.224 237.707 116.012L263.933 135.957C265.121 136.848 266.613 137.231 268.083 137.022C269.553 136.813 270.88 136.03 271.773 134.844C272.662 133.647 273.045 132.149 272.84 130.672C272.634 129.195 271.857 127.858 270.675 126.949Z" fill="#BFB8FF"/>
<path d="M193.034 63.4258C193.034 63.4258 176.57 67.1734 180.294 86.2799" stroke="white" stroke-width="5.99773" stroke-linecap="round" stroke-linejoin="round"/>
<path d="M56.0507 22.2031L23.2866 59.6791H51.6837C52.3055 59.6792 52.921 59.556 53.4948 59.3166C54.0687 59.0773 54.5893 58.7266 55.0268 58.2848C55.4642 57.8429 55.8097 57.3188 56.0433 56.7426C56.277 56.1665 56.394 55.5497 56.3878 54.928L56.0507 22.2031Z" fill="#BFB8FF"/>
<path d="M54.3883 177.711C54.3883 178.823 54.0586 179.91 53.4409 180.834C52.8232 181.759 51.9453 182.479 50.9181 182.905C49.891 183.33 48.7607 183.442 47.6702 183.225C46.5798 183.008 45.5781 182.472 44.792 181.686C44.0058 180.9 43.4704 179.898 43.2535 178.808C43.0366 177.717 43.1479 176.587 43.5734 175.56C43.9989 174.533 44.7194 173.655 45.6438 173.037C46.5683 172.42 47.6551 172.09 48.7669 172.09C50.2578 172.09 51.6876 172.682 52.7418 173.736C53.7961 174.791 54.3883 176.22 54.3883 177.711Z" fill="#F3725F"/>
<path d="M117.564 13.6036C119.864 13.6036 121.728 11.7397 121.728 9.44048C121.728 7.14124 119.864 5.27734 117.564 5.27734C115.265 5.27734 113.401 7.14124 113.401 9.44048C113.401 11.7397 115.265 13.6036 117.564 13.6036Z" fill="#F3725F"/>
<path d="M320.437 86.2819C323.541 86.2819 326.058 83.7651 326.058 80.6605C326.058 77.5558 323.541 75.0391 320.437 75.0391C317.332 75.0391 314.815 77.5558 314.815 80.6605C314.815 83.7651 317.332 86.2819 320.437 86.2819Z" fill="#F3725F"/>
<path d="M236.124 254.532C236.124 255.643 235.794 256.73 235.176 257.655C234.559 258.579 233.681 259.3 232.653 259.725C231.626 260.151 230.496 260.262 229.406 260.045C228.315 259.828 227.314 259.293 226.527 258.506C225.741 257.72 225.206 256.719 224.989 255.628C224.772 254.538 224.883 253.408 225.309 252.38C225.734 251.353 226.455 250.475 227.379 249.858C228.304 249.24 229.39 248.91 230.502 248.91C231.993 248.91 233.423 249.502 234.477 250.557C235.531 251.611 236.124 253.041 236.124 254.532Z" fill="#F3725F"/>
<path d="M247.742 28.9525C251.055 28.9525 253.74 26.2672 253.74 22.9548C253.74 19.6423 251.055 16.957 247.742 16.957C244.43 16.957 241.745 19.6423 241.745 22.9548C241.745 26.2672 244.43 28.9525 247.742 28.9525Z" fill="#61ABE1"/>
<path d="M347.415 184.078C347.416 184.969 347.153 185.84 346.659 186.582C346.166 187.323 345.463 187.901 344.64 188.242C343.817 188.584 342.912 188.674 342.038 188.5C341.165 188.327 340.362 187.898 339.732 187.268C339.102 186.639 338.674 185.836 338.5 184.962C338.327 184.089 338.417 183.183 338.758 182.36C339.1 181.538 339.678 180.835 340.419 180.341C341.16 179.847 342.031 179.584 342.922 179.586C344.113 179.588 345.254 180.062 346.096 180.904C346.939 181.746 347.412 182.888 347.415 184.078Z" fill="#61ABE1"/>
<path d="M18.0414 230.549C20.319 230.549 22.1653 228.702 22.1653 226.425C22.1653 224.147 20.319 222.301 18.0414 222.301C15.7638 222.301 13.9175 224.147 13.9175 226.425C13.9175 228.702 15.7638 230.549 18.0414 230.549Z" fill="#61ABE1"/>
<path d="M21.0443 170.596C23.3219 170.596 25.1683 168.749 25.1683 166.472C25.1683 164.194 23.3219 162.348 21.0443 162.348C18.7668 162.348 16.9204 164.194 16.9204 166.472C16.9204 168.749 18.7668 170.596 21.0443 170.596Z" fill="#FFC757"/>
<path d="M145.068 47.6908C148.381 47.6908 151.066 45.0055 151.066 41.693C151.066 38.3806 148.381 35.6953 145.068 35.6953C141.756 35.6953 139.07 38.3806 139.07 41.693C139.07 45.0055 141.756 47.6908 145.068 47.6908Z" fill="#FFC757"/>
<path d="M20.3895 40.2324C23.4498 38.9648 24.903 35.4563 23.6354 32.396C22.3678 29.3357 18.8593 27.8825 15.799 29.1501C12.7387 30.4177 11.2854 33.9262 12.553 36.9865C13.8207 40.0468 17.3291 41.5001 20.3895 40.2324Z" fill="#FFC757"/>
<path d="M348.897 60.4248C348.897 61.4621 348.589 62.4762 348.013 63.3388C347.437 64.2013 346.617 64.8736 345.659 65.2706C344.701 65.6676 343.646 65.7714 342.629 65.5691C341.611 65.3667 340.677 64.8671 339.943 64.1336C339.209 63.4001 338.71 62.4655 338.508 61.448C338.305 60.4306 338.409 59.376 338.806 58.4176C339.203 57.4592 339.875 56.64 340.738 56.0637C341.6 55.4873 342.614 55.1797 343.652 55.1797C344.341 55.1787 345.023 55.3136 345.66 55.5768C346.297 55.8401 346.876 56.2264 347.363 56.7136C347.85 57.2009 348.237 57.7795 348.5 58.4163C348.763 59.0532 348.898 59.7357 348.897 60.4248Z" fill="#FFC757"/>
<path d="M166.056 23.7061C168.125 23.7061 169.803 22.0283 169.803 19.9585C169.803 17.8888 168.125 16.2109 166.056 16.2109C163.986 16.2109 162.308 17.8888 162.308 19.9585C162.308 22.0283 163.986 23.7061 166.056 23.7061Z" fill="#503C6F"/>
<path d="M10.9223 139.494C10.9223 140.013 10.7681 140.522 10.4792 140.954C10.1902 141.386 9.77956 141.722 9.29918 141.921C8.8188 142.119 8.2903 142.171 7.78061 142.069C7.27091 141.967 6.80294 141.716 6.43593 141.348C6.06893 140.98 5.8194 140.511 5.71895 140.001C5.61849 139.491 5.67163 138.963 5.87162 138.483C6.07161 138.003 6.40947 137.594 6.84242 137.306C7.27537 137.018 7.78394 136.866 8.30373 136.867C8.64828 136.867 8.98943 136.935 9.30765 137.067C9.62587 137.199 9.91489 137.393 10.1582 137.637C10.4014 137.881 10.5941 138.171 10.7253 138.489C10.8564 138.808 10.9234 139.149 10.9223 139.494Z" fill="#503C6F"/>
<path d="M272.102 99.3963C274.38 99.3963 276.226 97.5499 276.226 95.2724C276.226 92.9948 274.38 91.1484 272.102 91.1484C269.824 91.1484 267.978 92.9948 267.978 95.2724C267.978 97.5499 269.824 99.3963 272.102 99.3963Z" fill="#503C6F"/>
<path d="M308.449 19.9508C310.103 19.9508 311.444 18.6099 311.444 16.9559C311.444 15.3018 310.103 13.9609 308.449 13.9609C306.795 13.9609 305.454 15.3018 305.454 16.9559C305.454 18.6099 306.795 19.9508 308.449 19.9508Z" fill="#503C6F"/>
<path d="M347.038 135.369C348.073 135.369 348.912 134.53 348.912 133.495C348.912 132.46 348.073 131.621 347.038 131.621C346.003 131.621 345.165 132.46 345.165 133.495C345.165 134.53 346.003 135.369 347.038 135.369Z" fill="#503C6F"/>
<path d="M344.749 244.151C344.749 244.967 344.507 245.764 344.054 246.442C343.601 247.121 342.957 247.649 342.203 247.961C341.45 248.273 340.62 248.355 339.82 248.196C339.02 248.037 338.286 247.644 337.709 247.067C337.132 246.491 336.739 245.756 336.58 244.956C336.421 244.156 336.503 243.327 336.815 242.573C337.127 241.82 337.656 241.175 338.334 240.722C339.012 240.269 339.809 240.027 340.625 240.027C341.719 240.027 342.768 240.462 343.541 241.235C344.314 242.009 344.749 243.058 344.749 244.151Z" fill="#503C6F"/>
<path d="M220.435 271.388C220.435 272.139 220.213 272.873 219.796 273.497C219.379 274.121 218.786 274.607 218.093 274.894C217.4 275.181 216.637 275.257 215.901 275.11C215.164 274.964 214.488 274.602 213.958 274.072C213.427 273.541 213.066 272.865 212.919 272.129C212.773 271.393 212.848 270.63 213.135 269.936C213.422 269.243 213.909 268.65 214.533 268.233C215.157 267.816 215.89 267.594 216.641 267.594C217.647 267.594 218.612 267.994 219.324 268.705C220.036 269.417 220.435 270.382 220.435 271.388Z" fill="#503C6F"/>
<path d="M33.8788 0.15625L36.1681 4.3429L40.3548 6.63223L36.1681 8.92156L33.8788 13.1004L31.5895 8.92156L27.4028 6.63223L31.5895 4.3429L33.8788 0.15625Z" fill="#BFB8FF"/>
<path d="M232.87 48.6406L234.203 51.0868L236.649 52.4196L234.203 53.7603L232.87 56.1985L231.537 53.7603L229.091 52.4196L231.537 51.0868L232.87 48.6406Z" fill="#BFB8FF"/>
<path d="M336.344 111.879L337.677 114.317L340.123 115.658L337.677 116.991L336.344 119.437L335.004 116.991L332.565 115.658L335.004 114.317L336.344 111.879Z" fill="#BFB8FF"/>
<path d="M352.221 214.168L353.554 216.606L356 217.947L353.554 219.28L352.221 221.726L350.88 219.28L348.442 217.947L350.88 216.606L352.221 214.168Z" fill="#BFB8FF"/>
<path d="M7.73145 68.7969L10.3736 73.6264L15.2031 76.2686L10.3736 78.9107L7.73145 83.7403L5.08931 78.9107L0.259766 76.2686L5.08931 73.6264L7.73145 68.7969Z" fill="#BFB8FF"/>
<path d="M199.949 13.1562L202.591 17.9858L207.42 20.6279L202.591 23.2701L199.949 28.0996L197.307 23.2701L192.477 20.6279L197.307 17.9858L199.949 13.1562Z" fill="#BFB8FF"/>
<path d="M311.569 37.8828L314.211 42.7124L319.041 45.3545L314.211 47.9966L311.569 52.8262L308.927 47.9966L304.098 45.3545L308.927 42.7124L311.569 37.8828Z" fill="#BFB8FF"/>
<path d="M335.443 196.868C335.443 187.945 333.025 179.19 328.448 171.531C323.871 163.872 317.305 157.596 309.447 153.37C301.589 149.143 292.733 147.124 283.82 147.527C274.906 147.93 266.269 150.74 258.824 155.658C251.38 160.576 245.406 167.418 241.539 175.459C237.671 183.499 236.053 192.438 236.858 201.324C237.663 210.21 240.859 218.712 246.108 225.927C251.357 233.142 258.462 238.801 266.669 242.302V270.401C266.685 275.441 268.696 280.271 272.261 283.835C275.826 287.398 280.656 289.407 285.697 289.421C290.736 289.404 295.565 287.395 299.128 283.832C302.692 280.268 304.701 275.44 304.717 270.401V242.607C313.803 238.898 321.578 232.567 327.051 224.42C332.523 216.274 335.445 206.682 335.443 196.868Z" fill="#FFC757"/>
<path d="M287.343 147.496V289.34C292.078 288.915 296.484 286.737 299.697 283.233C302.911 279.73 304.701 275.153 304.717 270.399V242.605C315.216 238.321 323.922 230.555 329.372 220.612C334.822 210.668 336.684 199.151 334.646 187.997C332.609 176.842 326.795 166.728 318.181 159.353C309.568 151.978 298.679 147.791 287.343 147.496Z" fill="#F2AC30"/>
<path d="M267.406 262.348V279.91C267.431 284.944 269.444 289.764 273.006 293.321C276.569 296.877 281.393 298.882 286.427 298.899C291.466 298.882 296.294 296.873 299.858 293.309C303.421 289.746 305.43 284.918 305.447 279.878V262.316L267.406 262.348Z" fill="#503C6F"/>
<path d="M308.01 273.691H265.571C262.138 273.691 259.354 276.475 259.354 279.909C259.354 283.342 262.138 286.126 265.571 286.126H308.01C311.444 286.126 314.227 283.342 314.227 279.909C314.227 276.475 311.444 273.691 308.01 273.691Z" fill="#A595FA"/>
<path d="M323.808 181.594C325.271 184.682 326.227 187.986 326.638 191.378" stroke="white" stroke-width="5.85661" stroke-linecap="round" stroke-linejoin="round"/>
<path d="M295.936 159.914C304.107 162.29 311.552 166.675 317.591 172.67" stroke="white" stroke-width="5.85661" stroke-linecap="round" stroke-linejoin="round"/>
<path d="M306.559 274.79H264.113C262.467 274.776 260.893 274.115 259.73 272.95C258.567 271.786 257.908 270.211 257.896 268.565C257.91 266.92 258.569 265.347 259.732 264.184C260.895 263.022 262.468 262.362 264.113 262.348H306.559C308.205 262.36 309.78 263.019 310.945 264.182C312.109 265.345 312.77 266.919 312.785 268.565C312.772 270.212 312.112 271.788 310.948 272.953C309.783 274.118 308.207 274.778 306.559 274.79Z" fill="#503C6F"/>
<path d="M305.446 263.075H263.015C261.371 263.061 259.798 262.401 258.635 261.238C257.472 260.075 256.812 258.502 256.798 256.858C256.812 255.213 257.472 253.64 258.635 252.477C259.798 251.315 261.371 250.655 263.015 250.641H305.446C307.092 250.653 308.667 251.312 309.832 252.475C310.996 253.638 311.657 255.212 311.671 256.858C311.657 258.504 310.996 260.078 309.832 261.241C308.667 262.404 307.092 263.063 305.446 263.075Z" fill="#A595FA"/>
<path d="M274.854 245.09V201.812L284.968 229.912L295.089 203.498V245.647" stroke="#503C6F" stroke-width="2.62646" stroke-linecap="round" stroke-linejoin="round"/>
<path d="M302.639 194.946C300.565 194.932 298.579 194.101 297.112 192.634C295.644 191.167 294.814 189.181 294.799 187.106C294.812 185.03 295.642 183.043 297.109 181.576C298.577 180.108 300.564 179.278 302.639 179.266C304.715 179.278 306.702 180.108 308.17 181.576C309.637 183.043 310.467 185.03 310.48 187.106C310.465 189.181 309.635 191.167 308.167 192.634C306.7 194.101 304.714 194.932 302.639 194.946Z" fill="#FFC757"/>
<path d="M251.49 197.949C251.49 182.015 238.573 169.098 222.638 169.098C206.704 169.098 193.787 182.015 193.787 197.949C193.787 213.884 206.704 226.801 222.638 226.801C238.573 226.801 251.49 213.884 251.49 197.949Z" fill="#9CE5D6"/>
<path d="M222.67 219.94C216.85 219.911 211.277 217.584 207.165 213.465C203.053 209.346 200.736 203.769 200.717 197.949C200.734 192.128 203.051 186.55 207.163 182.43C211.275 178.311 216.849 175.984 222.67 175.957C228.49 175.986 234.063 178.313 238.174 182.433C242.286 186.552 244.604 192.129 244.622 197.949C244.604 203.769 242.286 209.346 238.174 213.465C234.063 217.584 228.49 219.911 222.67 219.94Z" fill="#65C9AD"/>
<path d="M208.361 197.202L221.635 208.335L236.9 189.785" stroke="white" stroke-width="5.63708" stroke-linecap="round" stroke-linejoin="round"/>
<path d="M333.882 304.285H20.2756C19.5304 304.285 18.8157 303.99 18.2881 303.464C17.7605 302.938 17.463 302.224 17.4609 301.479C17.463 300.734 17.7605 300.02 18.2881 299.493C18.8157 298.967 19.5304 298.672 20.2756 298.672H333.882C334.626 298.674 335.339 298.97 335.865 299.496C336.391 300.022 336.687 300.735 336.689 301.479C336.687 302.222 336.391 302.935 335.865 303.461C335.339 303.987 334.626 304.283 333.882 304.285Z" fill="#BFB8FF"/>
<path d="M152.428 187.733C154.234 187.733 155.873 187.468 157.345 186.939C158.837 186.409 159.946 185.888 160.672 185.378L164.441 192.857C163.518 193.642 161.938 194.437 159.7 195.242C157.482 196.046 154.842 196.449 151.78 196.449C148.914 196.449 146.225 195.948 143.713 194.947C141.2 193.946 138.982 192.543 137.058 190.737C135.154 188.911 133.653 186.781 132.553 184.347C131.474 181.894 130.934 179.234 130.934 176.368C130.934 173.502 131.474 170.843 132.553 168.389C133.633 165.916 135.125 163.766 137.029 161.941C138.952 160.115 141.171 158.702 143.683 157.701C146.215 156.68 148.914 156.17 151.78 156.17C154.842 156.17 157.482 156.572 159.7 157.377C161.938 158.182 163.518 158.977 164.441 159.762L160.672 167.241C159.946 166.711 158.837 166.19 157.345 165.68C155.873 165.15 154.234 164.885 152.428 164.885C150.426 164.885 148.679 165.199 147.187 165.827C145.695 166.436 144.449 167.28 143.448 168.359C142.446 169.439 141.701 170.656 141.21 172.011C140.719 173.365 140.474 174.788 140.474 176.28C140.474 177.791 140.719 179.234 141.21 180.608C141.701 181.963 142.446 183.18 143.448 184.259C144.449 185.339 145.695 186.193 147.187 186.821C148.679 187.429 150.426 187.733 152.428 187.733Z" fill="#503C6F"/>
<path d="M157.345 186.939L156.951 185.83L156.947 185.832L157.345 186.939ZM160.672 185.378L161.722 184.849L161.11 183.633L159.996 184.416L160.672 185.378ZM164.441 192.857L165.203 193.752L165.907 193.153L165.491 192.327L164.441 192.857ZM159.7 195.242L159.302 194.135L159.299 194.136L159.7 195.242ZM143.713 194.947L144.148 193.855L143.713 194.947ZM137.058 190.737L136.244 191.586L136.253 191.594L137.058 190.737ZM132.553 184.347L131.477 184.821L131.482 184.831L132.553 184.347ZM132.553 168.389L133.63 168.863L133.631 168.859L132.553 168.389ZM137.029 161.941L136.219 161.088L136.215 161.092L137.029 161.941ZM143.683 157.701L144.118 158.793L144.123 158.792L143.683 157.701ZM159.7 157.377L159.299 158.482L159.302 158.484L159.7 157.377ZM164.441 159.762L165.491 160.291L165.907 159.466L165.203 158.866L164.441 159.762ZM160.672 167.241L159.979 168.191L161.099 169.008L161.722 167.77L160.672 167.241ZM157.345 165.68L156.947 166.787L156.955 166.79L156.964 166.793L157.345 165.68ZM147.187 165.827L147.631 166.916L147.643 166.911L147.187 165.827ZM143.448 168.359L144.31 169.159L143.448 168.359ZM141.21 180.608L140.102 181.004L140.104 181.009L141.21 180.608ZM143.448 184.259L144.31 183.459L143.448 184.259ZM147.187 186.821L146.73 187.905L146.743 187.91L147.187 186.821ZM152.428 188.91C154.349 188.91 156.125 188.627 157.743 188.045L156.947 185.832C155.62 186.309 154.119 186.557 152.428 186.557V188.91ZM157.739 188.047C159.266 187.504 160.492 186.942 161.348 186.34L159.996 184.416C159.399 184.835 158.408 185.313 156.951 185.83L157.739 188.047ZM159.622 185.907L163.391 193.386L165.491 192.327L161.722 184.849L159.622 185.907ZM163.679 191.961C162.924 192.604 161.51 193.341 159.302 194.135L160.098 196.348C162.366 195.533 164.113 194.68 165.203 193.752L163.679 191.961ZM159.299 194.136C157.242 194.883 154.744 195.273 151.78 195.273V197.625C154.94 197.625 157.723 197.21 160.102 196.347L159.299 194.136ZM151.78 195.273C149.054 195.273 146.514 194.797 144.148 193.855L143.277 196.04C145.936 197.099 148.774 197.625 151.78 197.625V195.273ZM144.148 193.855C141.769 192.907 139.677 191.582 137.863 189.879L136.253 191.594C138.287 193.503 140.631 194.985 143.277 196.04L144.148 193.855ZM137.872 189.888C136.078 188.168 134.663 186.162 133.625 183.863L131.482 184.831C132.642 187.401 134.23 189.655 136.244 191.586L137.872 189.888ZM133.63 183.874C132.62 181.58 132.11 179.082 132.11 176.368H129.758C129.758 179.386 130.327 182.208 131.477 184.821L133.63 183.874ZM132.11 176.368C132.11 173.654 132.62 171.157 133.63 168.863L131.477 167.915C130.327 170.528 129.758 173.351 129.758 176.368H132.11ZM133.631 168.859C134.65 166.525 136.053 164.505 137.843 162.79L136.215 161.092C134.196 163.027 132.616 165.306 131.475 167.918L133.631 168.859ZM137.838 162.794C139.651 161.073 141.742 159.74 144.118 158.793L143.248 156.608C140.599 157.664 138.253 159.157 136.219 161.088L137.838 162.794ZM144.123 158.792C146.508 157.83 149.057 157.346 151.78 157.346V154.994C148.771 154.994 145.922 155.53 143.243 156.61L144.123 158.792ZM151.78 157.346C154.744 157.346 157.242 157.736 159.299 158.482L160.102 156.271C157.723 155.408 154.94 154.994 151.78 154.994V157.346ZM159.302 158.484C161.51 159.278 162.924 160.015 163.679 160.657L165.203 158.866C164.113 157.938 162.366 157.086 160.098 156.27L159.302 158.484ZM163.391 159.233L159.622 166.711L161.722 167.77L165.491 160.291L163.391 159.233ZM161.365 166.291C160.498 165.658 159.259 165.092 157.726 164.567L156.964 166.793C158.415 167.289 159.394 167.764 159.979 168.191L161.365 166.291ZM157.743 164.574C156.125 163.991 154.349 163.709 152.428 163.709V166.061C154.119 166.061 155.62 166.309 156.947 166.787L157.743 164.574ZM152.428 163.709C150.305 163.709 148.397 164.042 146.73 164.743L147.643 166.911C148.961 166.356 150.546 166.061 152.428 166.061V163.709ZM146.743 164.738C145.107 165.406 143.714 166.343 142.585 167.56L144.31 169.159C145.184 168.217 146.283 167.466 147.631 166.916L146.743 164.738ZM142.585 167.56C141.48 168.752 140.65 170.104 140.104 171.61L142.315 172.411C142.751 171.208 143.413 170.126 144.31 169.159L142.585 167.56ZM140.104 171.61C139.565 173.097 139.298 174.656 139.298 176.28H141.65C141.65 174.92 141.873 173.633 142.315 172.411L140.104 171.61ZM139.298 176.28C139.298 177.921 139.565 179.498 140.102 181.004L142.317 180.213C141.874 178.97 141.65 177.661 141.65 176.28H139.298ZM140.104 181.009C140.65 182.514 141.48 183.866 142.585 185.059L144.31 183.459C143.413 182.493 142.751 181.411 142.315 180.207L140.104 181.009ZM142.585 185.059C143.711 186.273 145.1 187.218 146.731 187.905L147.643 185.737C146.29 185.167 145.186 184.405 144.31 183.459L142.585 185.059ZM146.743 187.91C148.405 188.588 150.309 188.91 152.428 188.91V186.557C150.542 186.557 148.952 186.271 147.631 185.732L146.743 187.91Z" fill="#503C6F"/>
</svg>
