<svg width="45" height="45" viewBox="0 0 45 45" fill="none" xmlns="http://www.w3.org/2000/svg">
<path d="M43.4905 19.6942C36.5564 13.8565 23.9645 2.9808 23.8398 2.87034L22.5 1.71875L21.1664 2.87034C21.0395 2.97875 8.44159 13.8503 1.40727 19.7412C0.511364 20.5472 0 21.6742 0 22.8278C0 25.086 1.83273 26.9187 4.09091 26.9187H6.13636V39.1915C6.13636 41.4497 7.96909 43.2824 10.2273 43.2824H16.3636H34.7727C37.0309 43.2824 38.8636 41.4497 38.8636 39.1915V26.9187H40.9091C43.1673 26.9187 45 25.086 45 22.8278C45 21.6047 44.4375 20.4531 43.4905 19.6942ZM26.5909 39.1915H18.4091V28.9642H26.5909V39.1915ZM34.7727 22.8278L34.7768 39.1915C34.7727 39.1915 28.6364 39.1915 28.6364 39.1915V26.9187H16.3636V39.1915H10.2273V22.8278H4.08886C9.74454 18.0987 19.0514 10.0908 22.5 7.11875C25.9486 10.0908 35.2514 18.0967 40.9091 22.8299L34.7727 22.8278Z" fill="black"/>
</svg>
