<svg width="46" height="39" viewBox="0 0 46 39" fill="none" xmlns="http://www.w3.org/2000/svg">
<path d="M13.0003 21.6222V27.8958C13.0003 29.2392 14.0934 30.3333 15.4378 30.3333H30.0628C31.4061 30.3333 32.5003 29.2392 32.5003 27.8958V21.6222C32.5003 19.2974 31.6661 17.0441 30.1538 15.2783L26.2733 10.7521L27.9849 8.18458C28.2059 7.852 28.2276 7.42517 28.0391 7.07308C27.8506 6.721 27.4834 6.5 27.0836 6.5H18.4169C18.0172 6.5 17.6499 6.71992 17.4614 7.072C17.2729 7.42408 17.2935 7.852 17.5156 8.1835L19.2273 10.751L15.3479 15.2772C13.8344 17.043 13.0003 19.2974 13.0003 21.6222ZM21.4059 11.5386C21.7222 11.1702 21.7536 10.6362 21.4849 10.2321L20.4417 8.66667H25.0599L24.0156 10.2321C23.7459 10.6362 23.7784 11.1692 24.0947 11.5386L28.5082 16.6877C29.6847 18.0613 30.3336 19.8142 30.3336 21.6222V27.8958C30.3336 28.0453 30.2123 28.1667 30.0628 28.1667H15.4378C15.2883 28.1667 15.1669 28.0453 15.1669 27.8958V21.6222C15.1669 19.8142 15.8159 18.0613 16.9924 16.6877L21.4059 11.5386ZM24.9169 22.2083C24.9169 21.9104 24.6732 21.6667 24.3753 21.6667H21.1253C19.6324 21.6667 18.4169 20.4512 18.4169 18.9583C18.4169 17.4655 19.6324 16.25 21.1253 16.25H21.6669V15.1667C21.6669 14.5687 22.1523 14.0833 22.7503 14.0833C23.3483 14.0833 23.8336 14.5687 23.8336 15.1667V16.25H26.0003C26.5994 16.25 27.0836 16.7353 27.0836 17.3333C27.0836 17.9313 26.5994 18.4167 26.0003 18.4167H21.1253C20.8263 18.4167 20.5836 18.6593 20.5836 18.9583C20.5836 19.2573 20.8263 19.5 21.1253 19.5H24.3753C25.8692 19.5 27.0836 20.7144 27.0836 22.2083C27.0836 23.7023 25.8692 24.9167 24.3753 24.9167H23.8336V26C23.8336 26.5991 23.3483 27.0833 22.7503 27.0833C22.1523 27.0833 21.6669 26.5991 21.6669 26V24.9167H19.5003C18.9023 24.9167 18.4169 24.4324 18.4169 23.8333C18.4169 23.2343 18.9023 22.75 19.5003 22.75H24.3753C24.6732 22.75 24.9169 22.5063 24.9169 22.2083ZM3.56769 20.2659L0.317688 17.0159C-0.105896 16.5923 -0.105896 15.9077 0.317688 15.4841C0.741271 15.0605 1.42594 15.0605 1.84952 15.4841L3.42035 17.0549C4.62935 7.4555 12.828 0 22.7503 0C31.795 0 39.5896 6.13275 41.7064 14.9132C41.8473 15.4949 41.4898 16.0799 40.908 16.2208C40.3274 16.3594 39.7413 16.0041 39.6015 15.4213C37.7187 7.61692 30.7897 2.16667 22.7503 2.16667C14.1735 2.16667 7.05169 8.43483 5.67585 16.6259L6.81769 15.4841C7.24127 15.0605 7.92594 15.0605 8.34952 15.4841C8.7731 15.9077 8.7731 16.5923 8.34952 17.0159L5.09952 20.2659C4.99985 20.3656 4.8796 20.4447 4.74744 20.4999C4.61527 20.5541 4.47444 20.5833 4.3336 20.5833C4.19277 20.5833 4.05194 20.5541 3.91977 20.4999C3.78652 20.4447 3.66735 20.3656 3.56769 20.2659ZM45.1818 23.5159C44.9705 23.7272 44.6932 23.8333 44.4159 23.8333C44.1385 23.8333 43.8612 23.7272 43.6499 23.5159L42.0791 21.9451C40.8701 31.5445 32.6714 39 22.7492 39C13.7055 39 5.90985 32.8683 3.79194 24.0868C3.65219 23.5051 4.00969 22.9201 4.59144 22.7803C5.16994 22.6363 5.75819 22.9981 5.89902 23.5788C7.78077 31.3831 14.7098 36.8333 22.7492 36.8333C31.3259 36.8333 38.4478 30.5652 39.8236 22.3741L38.6818 23.5159C38.4705 23.7272 38.1932 23.8333 37.9159 23.8333C37.6385 23.8333 37.3612 23.7272 37.1499 23.5159C36.7264 23.0923 36.7264 22.4077 37.1499 21.9841L40.3989 18.7352C40.4985 18.6344 40.6188 18.5553 40.752 18.5001C41.0164 18.3907 41.3154 18.3907 41.5797 18.5001C41.7129 18.5553 41.8321 18.6344 41.9329 18.7352L45.1818 21.9841C45.6054 22.4077 45.6054 23.0923 45.1818 23.5159Z" fill="black"/>
</svg>
