<svg width="375" height="292" viewBox="0 0 375 292" fill="none" xmlns="http://www.w3.org/2000/svg">
<g clip-path="url(#clip0_3050_9948)">
<rect width="981.693" height="32.2454" transform="translate(-268.853 259.754)" fill="#EFC2BC"/>
<rect width="635.951" height="259.755" transform="translate(-113)" fill="#BCEFD7"/>
<path d="M198.308 281.101C194.579 254.855 190.851 228.738 187.122 202.492C186.094 195.066 184.937 187.512 183.908 180.087C183.651 178.294 180.823 179.062 181.08 180.855C184.808 207.101 188.537 233.219 192.265 259.464C193.294 266.89 194.451 274.444 195.479 281.869C195.736 283.662 198.565 282.894 198.308 281.101Z" fill="#6D392F"/>
<path d="M156.396 282.254C162.438 255.624 169.252 229.122 177.094 203.004C179.28 195.578 181.594 188.28 183.908 180.855C184.423 179.062 181.723 178.294 181.08 180.087C172.852 206.076 165.395 232.45 158.838 258.952C157.039 266.506 155.239 273.932 153.567 281.485C153.182 283.278 156.01 284.046 156.396 282.254Z" fill="#6D392F"/>
<path d="M297.688 281.869C291.388 256.263 285.217 230.657 278.917 205.052C277.117 197.882 275.446 190.584 273.646 183.415C273.26 181.622 270.432 182.39 270.818 184.183C277.117 209.789 283.288 235.394 289.588 261C291.388 268.17 293.059 275.467 294.859 282.637C295.373 284.429 298.073 283.661 297.688 281.869Z" fill="#6D392F"/>
<path d="M254.747 283.02C258.347 257.158 262.975 231.425 268.375 205.819C269.917 198.521 271.589 191.224 273.26 184.054C273.646 182.262 270.946 181.493 270.432 183.286C264.518 208.764 259.375 234.369 255.261 260.231C254.104 267.529 252.947 274.954 251.919 282.38C251.79 284.044 254.49 284.941 254.747 283.02Z" fill="#6D392F"/>
<path d="M288.688 184.182L272.232 183.67C272.103 183.414 272.103 183.158 271.975 182.774C271.846 183.03 271.846 183.286 271.717 183.67L182.494 180.47L161.024 179.701L161.281 175.22L246.005 174.58L284.188 174.324H287.788L288.688 184.182Z" fill="#6D392F"/>
<path d="M272.361 183.67H271.975C272.104 183.414 272.104 183.158 272.232 182.773C272.104 183.029 272.232 183.414 272.361 183.67Z" fill="#6D392F"/>
<path d="M280.331 148.717C280.074 148.205 280.331 147.693 280.717 147.437C281.36 147.053 282.002 146.541 282.645 146.156C281.488 145.26 281.231 144.108 281.617 143.084C281.36 143.084 281.102 143.212 280.974 143.34C282.645 141.419 284.188 139.371 285.474 137.194C283.417 136.938 281.102 136.682 279.56 135.274C275.189 131.561 278.017 122.855 272.874 120.295C270.689 119.142 267.989 119.911 265.675 120.679C261.175 122.087 256.675 123.623 252.176 125.032C250.89 125.416 249.476 126.056 248.961 127.208C248.447 128.488 249.219 130.025 249.861 131.177C251.79 134.506 253.718 137.835 255.775 141.163L255.261 139.755C258.732 146.028 259.375 153.838 256.932 160.624C255.775 163.696 254.104 166.513 253.461 169.714C262.204 168.818 271.074 168.689 279.817 169.33C280.202 167.025 278.788 164.721 276.988 163.056C275.189 161.392 273.131 160.112 271.717 158.191C270.303 156.271 269.789 153.454 271.332 151.534C273.774 152.046 276.346 152.558 278.788 153.07C279.303 153.198 279.817 153.326 280.331 153.07C280.845 152.814 281.102 152.174 281.231 151.534V151.406C281.231 150.509 280.974 149.613 280.331 148.717Z" fill="#D69378"/>
<path d="M284.317 174.323L246.133 174.579L245.876 163.824L283.417 165.617L284.317 174.323Z" fill="#F0936E"/>
<path d="M198.951 164.85L196.379 151.151L199.079 149.871L200.622 163.826" fill="#F46440"/>
<path d="M205.507 165.746L208.336 150.766H204.864L203.836 165.746L206.664 143.725L202.165 143.469C202.165 143.469 202.165 164.337 202.165 165.234" fill="#75AAC9"/>
<path d="M196.894 161.01C196.894 161.01 193.551 174.837 202.422 175.093C211.164 175.349 207.565 160.754 207.565 160.754L196.894 161.01Z" fill="#D69378"/>
<path d="M221.577 164.722L218.749 151.151L221.577 149.871L223.249 163.698" fill="#D69378"/>
<path d="M223.762 162.545C224.02 161.905 221.834 143.469 221.834 143.469L224.534 143.725L225.177 162.545" fill="#101830"/>
<path d="M228.391 166.002L233.405 146.669L231.091 146.285L227.62 164.337" fill="#101830"/>
<path d="M225.306 168.306L226.077 139.627L229.677 139.371L227.363 167.025" fill="#75AAC9"/>
<path d="M219.52 158.446C219.777 171.377 215.92 174.833 226.077 174.961C236.233 175.089 231.991 170.736 231.733 157.934C231.219 158.446 219.52 157.806 219.52 158.446Z" fill="#F46440"/>
<path d="M132.483 101.215C131.583 101.215 130.683 101.215 129.912 101.727C129.654 101.855 129.526 102.239 129.526 102.495C129.526 102.623 129.654 102.879 129.783 103.007C130.169 103.519 130.812 104.031 131.454 104.16C131.84 104.288 132.354 104.16 132.483 103.775C132.611 103.519 132.354 103.263 132.226 103.007C131.969 102.751 131.84 102.623 131.711 102.367C131.711 102.367 131.711 102.367 131.711 102.239L131.84 102.111C132.997 101.855 134.154 101.983 135.311 101.471" fill="#FFAD80"/>
<path d="M131.583 99.424C130.941 99.168 130.169 99.168 129.398 99.168C129.141 99.168 128.883 99.296 128.755 99.424C128.369 99.6801 128.369 100.192 128.498 100.576C128.755 100.96 129.269 101.088 129.783 101.088C130.941 101.216 132.226 101.216 133.383 101.216" fill="#FFAD80"/>
<path d="M132.741 97.1189C131.712 96.7348 130.683 96.4787 129.655 96.2227C129.526 96.2227 129.398 96.2227 129.141 96.2227C128.884 96.3507 128.626 96.6067 128.626 96.8628C128.626 97.1189 128.626 97.5029 128.755 97.759C128.755 97.887 128.884 98.0151 128.884 98.1431C129.012 98.2711 129.141 98.2711 129.398 98.3991C130.298 98.6552 131.326 98.7832 132.226 99.0393" fill="#FFAD80"/>
<path d="M137.369 95.1992C139.297 96.2234 140.583 98.1439 141.74 100.064C142.383 101.089 143.154 102.241 143.797 103.265C142.64 104.289 141.74 105.442 140.968 106.85C140.197 105.826 139.04 105.185 137.754 104.801C136.597 104.417 135.312 104.161 134.026 103.777C132.869 103.393 131.583 102.625 130.94 101.601C130.298 100.448 130.298 98.9121 131.197 98.0158" fill="#FFAD80"/>
<path d="M139.168 104.803C143.025 112.741 147.782 120.166 153.182 127.208C154.596 129.128 156.267 131.049 158.582 131.817C160.767 132.713 163.853 131.945 164.753 129.768C165.267 128.616 165.01 127.208 164.624 125.928C163.21 120.678 143.154 102.242 143.154 102.242" fill="#FFAD80"/>
<path d="M145.083 91.1022C144.44 89.9499 143.668 88.9257 142.768 88.0295C142.64 87.9015 142.511 87.7734 142.254 87.7734C141.997 87.7734 141.868 87.9015 141.74 88.0295C136.726 92.2544 131.712 96.4794 126.826 100.832L123.998 103.009C123.998 103.009 126.698 102.497 127.855 101.344C128.883 99.9362 145.083 91.1022 145.083 91.1022Z" fill="#75AAC9"/>
<path d="M139.426 97.1187C138.526 96.4786 137.626 95.8384 136.597 95.4543C135.569 95.0702 134.54 94.6861 133.512 94.8142C132.483 94.9422 131.326 95.4543 130.941 96.4786C130.941 96.6066 130.812 96.7346 130.812 96.8626C130.812 96.9907 130.941 97.1187 131.069 97.1187C132.869 97.3748 135.569 96.7346 137.497 99.9353" fill="#FFAD80"/>
<g opacity="0.39">
<path d="M137.112 98.3984C136.726 97.8862 136.212 97.5022 135.569 97.2461C135.697 97.6302 135.826 98.2703 135.569 98.5264C135.312 98.7824 134.926 98.7824 134.54 98.7824L132.998 98.9105C133.898 98.7824 134.797 99.1665 135.312 99.9347C135.312 100.063 135.44 100.063 135.44 100.191C135.44 100.319 135.312 100.447 135.183 100.575C134.54 100.959 133.898 101.215 133.126 101.215C133.898 102.239 134.926 102.879 136.212 103.135C136.726 103.263 137.24 103.135 137.626 103.007C136.983 101.343 136.726 99.6786 137.112 98.3984Z" fill="#E86346"/>
</g>
<path d="M98.028 105.698C96.0995 102.37 94.1711 99.041 92.1141 95.7122C91.3427 94.56 90.6999 93.0236 91.2141 91.7433C91.7284 90.463 93.1426 89.9509 94.4282 89.5668C98.9279 88.1585 103.428 86.6222 107.927 85.2139C110.242 84.4457 112.941 83.6775 115.127 84.8298C120.141 87.3903 117.441 96.0963 121.812 99.8091C123.355 101.217 125.669 101.474 127.726 101.73C126.441 103.906 124.898 105.955 123.227 107.875C123.741 107.235 124.898 107.747 125.284 108.515C125.669 109.283 125.412 110.179 125.155 110.948C124.641 112.74 124.126 114.532 123.741 116.325C123.612 116.837 123.355 117.477 122.841 117.861C122.327 118.117 121.812 117.989 121.298 117.861C118.855 117.349 116.284 116.837 113.841 116.325C112.299 118.117 112.813 121.062 114.227 122.982C115.641 124.903 117.698 126.183 119.498 127.847C121.169 129.512 122.712 131.816 122.327 134.121C113.584 133.481 104.713 133.609 95.971 134.505C96.6138 131.304 98.2851 128.488 99.4422 125.415C101.885 118.629 101.242 110.82 97.7709 104.546" fill="#F0936E"/>
<path d="M96.6138 137.705V144.235H124.126L123.741 136.297L96.6138 137.705Z" fill="#89BDDB"/>
<path d="M134.283 133.735C132.097 134.631 88 133.223 88 133.223L88.6428 140.136L133.769 136.935L134.283 133.735Z" fill="#101830"/>
<path d="M150.868 168.687C150.868 173.424 150.868 178.161 150.996 182.898C151.125 188.531 151.382 194.293 151.639 199.926C152.025 205.815 152.411 211.705 153.439 217.466C154.21 221.435 155.11 225.404 156.139 229.373C156.525 230.781 156.782 232.189 157.167 233.47C157.425 234.622 157.682 235.902 157.939 237.054C158.196 238.207 158.453 239.487 158.582 240.639C158.71 241.023 158.71 241.535 158.71 241.919C158.71 242.432 158.839 242.944 158.839 243.584C158.967 244.736 159.096 246.144 159.224 247.553C159.353 249.089 159.482 250.881 159.61 252.546C159.739 253.954 159.739 255.362 159.867 256.643C159.867 257.283 159.996 257.923 159.996 258.563C159.996 259.459 160.124 260.484 160.124 261.38C160.124 262.02 160.124 262.532 160.253 263.044C160.253 264.196 160.382 265.349 160.382 266.373C160.382 267.653 160.51 268.677 160.51 269.574C160.51 269.958 160.51 270.214 160.51 270.47C160.51 270.726 160.51 270.854 160.51 270.982C160.51 272.134 160.51 272.774 160.51 272.774C160.51 272.774 165.138 274.567 167.71 273.158C168.095 272.006 168.353 270.854 168.738 269.83C169.124 268.549 169.51 267.141 169.895 265.861C170.152 264.837 170.41 263.812 170.795 262.916C171.309 261.252 171.824 259.459 172.338 257.795C173.366 254.21 174.395 250.625 175.552 247.041C175.681 246.656 175.809 246.144 175.938 245.76C176.323 244.224 176.838 242.688 177.223 241.151C177.352 240.767 177.481 240.255 177.609 239.871C177.738 239.359 177.866 238.847 177.995 238.207C178.252 237.31 178.38 236.542 178.638 235.646C178.766 235.262 178.766 234.878 178.895 234.494C179.023 234.238 179.023 233.854 179.152 233.598C179.28 232.701 179.409 231.933 179.538 231.037C179.795 229.885 179.923 228.732 180.052 227.58C180.052 227.068 180.18 226.428 180.18 225.916C180.437 222.587 180.309 219.386 179.538 216.186C178.895 212.985 177.738 209.912 177.095 206.712C175.938 200.182 177.223 193.653 178.252 186.995C178.38 186.099 178.509 185.203 178.638 184.306C179.28 179.313 179.538 174.32 179.28 169.327C178.766 160.877 177.095 151.915 174.138 143.337L151.768 137.832C151.511 141.289 151.382 144.746 151.254 148.074C150.996 153.452 150.868 158.701 150.739 164.078C150.868 165.742 150.868 167.151 150.868 168.687Z" fill="#75AAC9"/>
<path d="M167.967 277.894C167.838 277.894 167.71 277.894 167.71 278.022C166.167 278.278 163.981 278.278 162.182 277.766C158.196 278.79 154.211 279.814 150.225 280.838C156.01 281.35 161.796 281.478 167.453 281.222C167.71 281.222 167.967 281.222 168.095 281.094C168.224 280.966 168.224 280.71 168.224 280.454C168.224 279.43 168.095 278.662 167.967 277.894Z" fill="#101830"/>
<path d="M169.51 270.469L167.967 280.199C167.453 280.199 166.938 280.327 166.424 280.327C165.91 280.327 165.396 280.327 164.881 280.455L160.382 278.535L159.353 269.957L169.51 270.469Z" fill="#101830"/>
<path d="M164.496 164.719C164.496 165.872 164.496 166.896 164.624 168.048C164.753 174.322 165.01 180.595 165.396 186.868C165.653 191.477 166.039 195.958 166.424 200.567C166.938 206.457 167.581 212.346 168.738 218.107C169.638 222.076 170.667 225.917 171.824 229.886C172.852 233.599 173.881 237.312 174.652 241.153C176.066 248.066 177.609 273.672 177.609 273.672C177.609 273.672 182.238 275.336 184.809 273.928C187.252 264.71 189.566 255.364 192.008 246.146C193.68 239.616 195.351 232.831 195.608 226.173C195.737 222.844 195.48 219.644 194.708 216.443C193.937 213.242 192.651 210.17 192.008 207.097C190.466 199.799 192.137 192.246 192.78 184.692C192.78 184.18 192.908 183.796 192.908 183.284C193.165 180.339 193.294 177.266 193.165 174.322C193.037 163.695 190.98 153.197 187.123 143.339L164.624 138.602C164.496 142.058 164.496 145.515 164.367 148.972C164.367 154.093 164.367 159.342 164.496 164.719Z" fill="#89BDDB"/>
<path d="M185.323 277.895C185.195 277.895 185.066 277.895 185.066 278.023C183.523 278.279 181.338 278.407 179.538 277.895C175.552 279.047 171.695 280.199 167.71 281.351C173.495 281.735 179.281 281.607 184.938 281.223C185.195 281.223 185.452 281.223 185.58 280.967C185.709 280.839 185.709 280.583 185.709 280.327C185.58 279.431 185.452 278.663 185.323 277.895Z" fill="#101830"/>
<path d="M186.609 270.341L185.452 280.071C184.937 280.071 184.423 280.199 183.909 280.199C183.395 280.199 182.88 280.327 182.366 280.327L177.738 278.535L176.452 269.957L186.609 270.341Z" fill="#101830"/>
<path d="M157.039 115.17C159.224 109.025 162.053 101.727 167.581 96.8623C167.709 96.8623 167.709 96.7343 167.838 96.7343C169.767 95.9661 171.695 95.8381 173.752 95.7101C175.552 95.7101 177.352 95.582 179.152 95.582C181.209 95.9661 178.766 95.1979 182.366 96.3502C185.966 97.5025 192.522 121.316 192.522 121.316L189.308 134.119L151.768 132.71C153.182 126.949 154.982 121.06 157.039 115.17Z" fill="#F46440"/>
<path d="M162.053 64.6016C162.181 68.1864 162.31 71.8992 162.438 75.484C162.567 79.5809 162.695 83.6778 161.667 87.6467C161.153 89.9513 160.124 92.1277 159.996 94.4323C161.153 94.9444 162.31 93.7921 163.081 92.7679C162.953 93.6641 163.081 94.6883 163.981 94.8163C164.624 94.9444 165.138 94.3042 165.395 93.7921C165.652 93.28 165.781 92.6399 166.295 92.1277C166.809 92.8959 167.195 93.5361 167.709 94.3042C167.838 94.5603 168.095 94.8163 168.481 94.6883C168.867 94.5603 168.738 94.0482 168.867 93.7921C169.124 93.0239 170.281 92.8959 171.052 93.408C171.695 93.9201 172.209 94.6883 172.981 95.0724C174.523 95.9686 176.58 94.9444 177.352 93.28C178.123 91.6156 177.995 89.8232 177.737 88.0308C177.48 86.1104 177.352 84.19 177.095 82.2695" fill="#101830"/>
<path d="M170.923 107.236C178.509 107.876 182.88 95.7131 182.88 95.7131C182.88 95.7131 179.794 84.4466 179.666 84.0625L171.823 87.7753C171.823 87.7753 171.695 89.4397 171.695 92.0003C171.695 92.7685 171.566 93.6647 171.566 94.5609C171.566 95.4571 171.438 96.3533 171.438 97.2495C171.438 97.8896 171.438 98.5297 171.309 99.1699C171.309 103.011 163.338 106.724 170.923 107.236Z" fill="#FFAD80"/>
<path d="M171.566 97.1208C174.009 95.3284 176.838 92.1277 178.252 87.3906C178.123 87.3906 175.938 90.5913 171.824 91.8716C171.824 92.6398 171.695 93.536 171.695 94.4322C171.695 95.3284 171.566 96.2246 171.566 97.1208Z" fill="#E86346"/>
<path d="M159.867 80.2226C160.253 86.1119 162.439 91.3611 170.024 92.5134C175.938 92.7694 179.666 90.849 184.68 85.9839C188.408 81.2468 190.98 75.2295 190.465 69.2121C190.337 68.3159 190.208 67.5478 189.951 66.6515C187.894 53.0805 169.252 53.7206 162.953 62.1705C161.667 63.8349 160.896 65.7553 160.767 67.9318C160.382 71.6447 159.739 76.1257 159.867 80.2226Z" fill="#FFAD80"/>
<path d="M165.781 74.2025C165.524 74.7146 165.524 75.4828 165.395 75.9949C165.267 76.6351 165.138 77.2752 164.881 77.9154C164.624 78.9396 164.238 80.0918 163.21 80.732C162.824 80.988 162.824 81.3721 163.21 81.6282C164.495 82.5244 165.91 83.2926 167.452 83.6766C168.224 83.9327 168.481 82.7804 167.838 82.5244C167.195 82.2683 166.424 82.0123 165.781 81.7562C165.138 81.5002 164.495 81.1161 163.852 80.732C163.852 80.988 163.852 81.3721 163.852 81.6282C164.881 80.86 165.395 79.7078 165.781 78.5555C166.038 77.7873 166.167 77.1472 166.295 76.379C166.424 75.7389 166.681 74.8427 166.424 74.2025C166.295 74.0745 165.781 73.9465 165.781 74.2025Z" fill="#E86346"/>
<path d="M172.08 77.9165C172.209 77.9165 172.337 77.9165 172.466 77.7885C172.595 77.7885 172.723 77.6605 172.723 77.5324C172.852 77.4044 172.852 77.4044 172.98 77.2764C172.98 77.1484 173.109 77.0203 173.109 76.8923C173.109 76.7643 173.109 76.7643 173.109 76.6362C173.109 76.5082 172.98 76.3802 172.852 76.2522C172.723 76.2522 172.723 76.1241 172.595 76.1241C172.466 75.9961 172.337 75.9961 172.08 75.9961C171.952 75.9961 171.823 75.9961 171.695 76.1241C171.566 76.1241 171.437 76.2522 171.437 76.3802C171.309 76.5082 171.309 76.5082 171.18 76.6362C171.18 76.7643 171.052 76.8923 171.052 77.0203C171.052 77.1484 171.052 77.1484 171.052 77.2764C171.052 77.4044 171.18 77.5324 171.309 77.6605C171.437 77.6605 171.437 77.7885 171.566 77.7885C171.695 77.7885 171.823 77.9165 172.08 77.9165Z" fill="#101830"/>
<path d="M162.31 76.8922C163.595 76.8922 163.595 74.8438 162.31 74.8438C160.895 74.8438 160.895 76.8922 162.31 76.8922Z" fill="#101830"/>
<path d="M176.709 56.0217C171.952 55.3815 166.938 56.1497 162.695 58.3262C161.281 59.0944 159.867 59.9906 158.838 61.2709C157.81 62.5511 157.553 64.3436 158.196 65.8799C158.71 67.1602 159.867 67.9284 161.024 68.5685C161.153 67.1602 161.41 65.7519 161.538 64.3436C163.595 67.4162 166.424 70.1048 169.638 71.8972C169.381 69.9768 168.866 68.0564 168.224 66.136C171.052 69.5927 174.909 72.1533 179.28 73.4336C177.866 71.7692 176.837 69.9768 175.937 67.9284C178.252 70.617 181.209 73.3056 184.808 73.4336C185.066 73.4336 185.323 73.4336 185.58 73.3056C185.965 73.0495 185.965 72.5374 185.837 72.0253C185.58 70.3609 185.323 68.8246 184.937 67.2882C184.423 64.8557 183.651 62.4231 182.366 60.3747C181.08 58.3262 179.152 56.5338 176.709 55.7656" fill="#101830"/>
<path d="M180.18 70.3621C180.823 72.5386 181.466 74.5871 182.108 76.7635C182.494 75.6113 183.78 74.9711 184.937 75.2272C186.222 75.4833 186.994 76.7635 186.994 77.9158C186.994 79.0681 186.48 80.3484 185.451 81.1165C184.68 81.7567 183.265 82.0127 182.751 81.1165C182.88 86.2377 179.023 90.7187 178.38 95.8398C178.637 96.0959 179.023 96.0959 179.28 95.8398C179.537 95.5838 179.666 95.3277 179.794 94.9436C180.18 94.0474 180.566 93.1512 180.951 92.255C181.208 93.2793 181.851 94.3035 182.623 95.0717C183.008 94.1755 183.394 93.2793 183.523 92.255C183.908 92.7671 184.165 93.4073 184.422 94.0474C184.808 94.6876 185.322 95.1997 186.094 95.0717C186.865 94.9436 187.251 94.0474 187.251 93.2793C187.251 92.5111 187.122 91.7429 187.379 90.9747C188.022 92.3831 189.179 93.5353 190.722 94.1755C190.851 94.3035 191.108 94.3035 191.236 94.1755C191.365 94.0474 191.493 93.9194 191.493 93.7914C191.751 92.7671 191.751 91.7429 191.493 90.7187C191.751 92.255 192.908 93.5353 194.322 94.1755C194.579 94.3035 194.708 94.3035 194.965 94.3035C195.35 94.1755 195.608 93.6633 195.608 93.2793C195.608 92.255 195.35 91.1028 194.708 90.2066C195.093 90.8467 195.608 91.4869 196.25 91.8709C196.379 91.999 196.636 92.127 196.765 91.999C196.893 91.8709 197.022 91.7429 197.022 91.4869C197.536 89.3104 196.765 87.1339 195.865 85.2134C194.836 82.6529 193.679 80.0923 193.808 77.4037C194.579 79.0681 195.736 80.6044 197.15 81.6286C197.665 80.3484 196.636 78.94 195.865 77.7878C194.193 75.2272 193.551 72.1545 192.908 69.2099C192.393 66.6493 191.751 64.2167 190.465 61.9122C189.308 59.6077 187.508 57.5592 185.322 56.279C181.851 54.4865 177.737 54.7426 173.752 55.3828C171.695 55.6388 169.381 56.1509 167.966 57.6873" fill="#101830"/>
<path d="M170.795 96.479C165.91 102.88 162.567 110.434 161.024 118.372C165.781 118.116 170.538 118.116 175.295 118.5C175.68 112.739 177.095 107.105 179.409 101.856C180.309 99.6797 182.109 94.1745 184.166 97.2471C177.609 113.891 176.323 132.583 180.566 149.995C182.88 149.483 190.337 149.611 190.337 149.611L191.365 154.86L184.423 157.037C184.423 157.037 182.88 162.286 183.009 164.974C183.266 170.736 183.78 176.497 184.423 182.258C185.58 193.525 186.737 204.663 187.894 215.93C184.937 214.521 181.466 214.009 178.252 214.521C176.066 214.906 173.881 215.674 171.695 215.93C167.71 216.314 163.853 214.778 159.996 214.009C156.139 213.241 151.51 213.241 148.682 215.93C147.268 179.954 146.368 142.825 158.581 108.898C159.61 106.081 160.767 103.136 162.696 100.832C164.624 98.5274 167.452 96.607 170.409 96.607" fill="#101830"/>
<path d="M135.955 134.121L136.855 132.712L151.897 131.176C155.496 130.792 159.096 130.408 162.696 130.792C166.296 131.176 169.895 132.328 172.595 134.889C174.395 136.553 175.809 139.242 174.909 141.546C173.881 144.363 170.281 145.131 167.324 145.003C163.467 144.875 159.739 143.851 156.139 142.827C151.768 141.674 140.711 137.321 136.726 135.785C136.469 135.145 136.083 134.633 135.955 134.121Z" fill="#FFAD80"/>
<path d="M135.183 135.143C132.869 136.552 133.126 138.6 134.154 139.752C135.054 139.752 134.669 137.704 135.311 137.064C136.211 135.783 138.526 137.32 140.84 136.936C141.483 136.808 140.583 133.351 140.583 133.351C138.526 132.071 136.34 130.79 134.283 129.51C134.026 129.382 133.897 129.254 133.64 129.254C133.512 129.254 133.383 129.382 133.126 129.51C131.84 130.662 130.812 131.943 129.783 133.479" fill="#FFAD80"/>
<path d="M133.383 132.453C131.711 134.246 131.069 136.806 131.84 139.111C131.969 139.623 132.74 140.135 132.997 139.751C132.997 139.751 133.126 135.142 135.311 135.654C137.497 136.038 135.311 133.477 135.311 133.477L133.383 132.453Z" fill="#FFAD80"/>
<path d="M130.426 132.966C129.012 134.758 129.526 137.703 131.454 138.983C131.454 138.983 132.097 139.623 132.226 138.471C132.354 137.319 134.154 133.606 134.154 133.606L133.768 132.197L131.969 131.941L130.426 132.966Z" fill="#FFAD80"/>
<path d="M131.583 133.605C128.755 133.99 127.855 137.446 127.212 137.062C126.569 136.678 127.598 133.733 128.755 132.453C129.912 131.173 131.197 129.765 132.869 129.509C133.254 129.381 133.897 130.277 133.897 130.533L131.583 133.605Z" fill="#FFAD80"/>
<path d="M200.493 116.195C197.022 101.215 189.18 97.6306 185.066 96.7344C183.909 97.1185 183.009 97.7586 182.237 98.9109C180.437 101.471 180.052 105.312 179.923 108.385C179.923 109.281 180.052 110.177 180.18 110.946C181.08 113.89 182.109 116.963 182.494 119.652C183.523 127.717 165.138 130.662 165.138 130.662L169.766 146.025C169.766 146.025 173.495 146.025 179.28 146.153C184.937 146.41 205.379 136.935 200.493 116.195Z" fill="#F46440"/>
<path d="M106.385 141.164C106.899 146.029 106.899 150.894 107.156 155.759C107.542 164.593 107.542 173.427 107.542 182.133C107.413 203.386 106.899 224.638 106.385 245.891C106.128 255.109 106.128 264.455 105.356 273.673C105.099 275.978 109.085 276.106 109.085 273.673C109.085 265.48 109.47 257.286 109.727 249.092C109.984 238.722 110.242 228.223 110.37 217.853C110.627 198.008 110.627 178.164 110.499 158.32C110.499 154.735 110.37 151.022 110.113 147.437C109.984 145.133 109.856 142.828 109.085 140.652C108.699 139.243 106.256 139.371 106.385 141.164Z" fill="#89BDDB"/>
<path d="M120.398 280.204C122.584 280.204 124.641 280.204 126.827 280.204C126.698 278.284 126.569 276.363 126.441 274.443C114.613 275.339 102.528 276.235 90.8287 274.059C90.7001 275.595 90.443 277.259 90.3145 278.796L119.37 280.204" fill="#89BDDB"/>
<path d="M160.896 72.4131C161.025 72.4131 161.025 72.4131 161.153 72.4131H161.282C161.41 72.4131 161.539 72.4131 161.539 72.4131C161.667 72.4131 161.796 72.4131 161.796 72.4131C161.924 72.4131 162.053 72.4131 162.31 72.4131H162.182C162.31 72.4131 162.439 72.4131 162.567 72.4131C162.696 72.4131 162.824 72.4131 162.953 72.2851C163.082 72.2851 163.082 72.157 163.21 72.029C163.082 72.157 162.953 72.157 162.953 72.2851C163.082 72.2851 163.082 72.2851 163.21 72.157C163.339 72.157 163.467 72.029 163.596 72.029C163.724 71.901 163.724 71.773 163.596 71.6449C163.467 71.5169 163.339 71.3889 163.21 71.3889C163.082 71.3889 162.953 71.2608 162.953 71.2608C163.082 71.3889 163.21 71.3889 163.21 71.5169C163.082 71.2608 162.696 71.1328 162.439 71.1328C162.31 71.1328 162.053 71.1328 161.924 71.1328C161.667 71.1328 161.539 71.1328 161.282 71.2608C161.025 71.2608 160.896 71.3889 160.767 71.5169C160.639 71.6449 160.51 71.773 160.51 72.029C160.51 72.157 160.639 72.2851 160.896 72.4131Z" fill="#101830"/>
<path d="M170.153 72.7955C170.41 72.9235 170.667 72.9235 170.924 72.9235C171.181 72.9235 171.438 72.9235 171.824 72.9235C172.081 72.9235 172.338 72.9235 172.595 72.9235C172.724 72.9235 172.852 72.9235 172.981 72.9235C173.11 72.9235 173.11 72.9235 173.238 72.9235C173.367 72.9235 173.367 72.9235 173.495 72.7955C173.752 72.6675 173.752 72.2834 173.495 72.1554C173.367 72.1554 173.367 72.1554 173.495 72.1554L173.367 72.0273C173.238 72.0273 173.11 72.0273 173.11 72.0273C172.981 72.0273 172.852 72.0273 172.724 72.0273C172.467 72.0273 172.21 72.0273 171.824 72.0273C171.567 72.0273 171.31 72.0273 171.052 72.0273C170.924 72.0273 170.795 72.0273 170.538 72.0273C170.41 72.0273 170.281 72.1554 170.153 72.1554C169.767 72.2834 169.767 72.6675 170.153 72.7955Z" fill="#101830"/>
<path d="M165.138 85.7261C165.138 85.8541 165.267 85.8541 165.267 85.8541C165.267 85.8541 165.267 85.8541 165.396 85.8541C165.524 85.8541 165.653 85.9821 165.653 85.9821C165.781 85.9821 166.038 85.9821 166.167 86.1102C166.295 86.1102 166.553 86.1102 166.681 86.1102C166.81 86.1102 166.81 86.1102 166.938 86.1102C167.067 86.1102 167.195 86.1102 167.324 85.9821C167.453 85.8541 167.581 85.7261 167.581 85.5981C167.581 85.47 167.453 85.342 167.324 85.214C167.195 85.0859 166.938 85.0859 166.681 85.0859C166.553 85.0859 166.424 85.0859 166.167 85.0859C166.038 85.0859 165.91 85.0859 165.653 85.0859C165.524 85.0859 165.396 85.0859 165.267 85.0859C165.138 85.0859 165.138 85.0859 165.138 85.0859C165.01 85.214 165.01 85.214 165.138 85.0859C165.138 85.342 165.01 85.5981 165.138 85.7261Z" fill="#E86346"/>
<ellipse cx="14.1038" cy="14.0772" rx="14.1038" ry="14.0772" transform="matrix(-1 0 0 1 109.92 6)" fill="url(#paint0_linear_3050_9948)"/>
<g clip-path="url(#clip1_3050_9948)">
<path d="M108.816 15.2288L118.836 29.2861L119.212 37.2534L101.901 36.8817L97.7853 28.838C100.545 24.7396 106.24 16.28 106.937 15.2288C107.634 14.1777 108.48 14.7909 108.816 15.2288Z" fill="url(#paint1_linear_3050_9948)"/>
<path d="M108.815 15.2288L112.688 20.6334C112.084 21.0916 110.705 22.2285 110.271 23.1529C108.882 22.3811 105.808 21.6724 104.62 25.0114C103.979 24.5283 102.377 23.635 101.092 23.9266L106.937 15.2288C107.634 14.1777 108.48 14.7909 108.815 15.2288Z" fill="white"/>
<path d="M108.816 15.2288L112.625 20.623C112.021 21.0811 110.705 22.2285 110.271 23.1529C109.61 21.6084 106.937 15.2288 106.937 15.2288C107.634 14.1777 108.48 14.7909 108.816 15.2288Z" fill="url(#paint2_linear_3050_9948)"/>
<path d="M90.3107 13.9359L100.331 27.9931L100.707 35.9604L83.3966 35.5887L79.2804 27.5451C82.0404 23.4466 87.7346 14.987 88.432 13.9359C89.1293 12.8847 89.975 13.4979 90.3107 13.9359Z" fill="url(#paint3_linear_3050_9948)"/>
<path d="M90.3108 13.9359L94.167 19.3303C93.5633 19.7885 92.2005 20.9355 91.766 21.8599C90.3776 21.0882 87.3037 20.3794 86.1154 23.7185C85.4748 23.2353 83.8722 22.342 82.5871 22.6336L88.4321 13.9359C89.1294 12.8847 89.9751 13.4979 90.3108 13.9359Z" fill="#FFFFFE"/>
<path d="M90.3103 13.9359L94.1196 19.33C93.516 19.7881 92.2 20.9355 91.7655 21.8599C91.1042 20.3154 88.4316 13.9359 88.4316 13.9359C89.1289 12.8847 89.9746 13.4979 90.3103 13.9359Z" fill="url(#paint4_linear_3050_9948)"/>
<path d="M83.61 47.0975H90.3022C92.4844 44.9081 96.4639 39.4279 94.9241 35.0227C93.3842 30.6175 91.2012 27.5367 90.3022 26.5469C88.2275 28.8982 86.4093 33.0004 85.7595 34.7576L83.61 47.0975Z" fill="#D9D9D9"/>
<path d="M99.2028 15.1077L109.223 29.165L109.599 37.1323L92.2887 36.7606L88.1725 28.7169C90.9325 24.6185 96.6267 16.1589 97.3241 15.1077C98.0214 14.0566 98.8671 14.6698 99.2028 15.1077Z" fill="url(#paint5_linear_3050_9948)"/>
<path d="M99.2027 15.1077L103.055 20.5015C102.451 20.9597 101.092 22.1074 100.658 23.0318C99.2695 22.26 96.1956 21.5513 95.0073 24.8903C94.3666 24.4072 92.7641 23.5139 91.4789 23.8055L97.324 15.1077C98.0213 14.0566 98.867 14.6698 99.2027 15.1077Z" fill="white"/>
<path d="M99.2029 15.1077L103.012 20.5019C102.409 20.96 101.093 22.1074 100.658 23.0318C99.9967 21.4873 97.3242 15.1077 97.3242 15.1077C98.0215 14.0566 98.8672 14.6698 99.2029 15.1077Z" fill="url(#paint6_linear_3050_9948)"/>
<path d="M92.3092 48.7545L119.411 22.1758L120.006 48.7545H92.3092Z" fill="url(#paint7_linear_3050_9948)"/>
<path d="M103.943 46.6607L76.8411 20.082L76.2461 46.6607L79.2616 49.5508H103.943V46.6607Z" fill="url(#paint8_linear_3050_9948)"/>
<path d="M92.5484 47.5311H99.2407C101.423 45.3417 105.402 39.8615 103.863 35.4563C102.323 31.0511 100.14 27.9703 99.2407 26.9805C97.166 29.3317 95.3478 33.434 94.698 35.1912L92.5484 47.5311Z" fill="url(#paint9_linear_3050_9948)"/>
<g clip-path="url(#clip2_3050_9948)">
<path d="M92.5484 47.5311H99.2407C101.423 45.3417 105.402 39.8615 103.863 35.4563C102.323 31.0511 100.14 27.9703 99.2407 26.9805C97.166 29.3317 95.3478 33.434 94.698 35.1912L92.5484 47.5311Z" fill="url(#paint10_linear_3050_9948)"/>
</g>
<path d="M110.436 51.7556C117.967 43.518 121.715 34.5201 122.648 31.0508C113.888 34.0314 106.442 43.2855 103.813 47.54C102.883 52.3775 102.905 59.9931 110.436 51.7556Z" fill="url(#paint11_linear_3050_9948)"/>
<path d="M106.118 49.8976C110.981 39.8514 112.001 30.1575 111.903 26.5664C104.361 31.926 99.8693 42.9224 98.5664 47.7506C99.0574 52.6522 101.255 59.9438 106.118 49.8976Z" fill="url(#paint12_linear_3050_9948)"/>
<path d="M100.601 45.9472C96.0637 35.7497 89.3163 28.7152 86.5098 26.4727C85.7374 35.6932 91.24 46.22 94.0878 50.3309C98.1493 53.1186 105.138 56.1446 100.601 45.9472Z" fill="url(#paint13_linear_3050_9948)"/>
</g>
<g clip-path="url(#clip3_3050_9948)">
<path d="M110.436 51.7556C117.967 43.518 121.715 34.5201 122.648 31.0508C113.888 34.0314 106.442 43.2855 103.813 47.54C102.883 52.3775 102.905 59.9931 110.436 51.7556Z" fill="url(#paint14_linear_3050_9948)"/>
<path d="M95.2847 46.9148C88.1128 38.3628 79.688 33.4603 76.3721 32.0781C78.1709 41.1545 86.3616 49.757 90.2322 52.9237C94.9047 54.4841 102.457 55.4668 95.2847 46.9148Z" fill="url(#paint15_linear_3050_9948)"/>
</g>
<path d="M154.448 42.0391V24.0539L147.613 33.9267H145.265L138.465 24.0539V42.0391H135.358V19.0829H138.775L146.439 30.164L154.103 19.0829H157.555V42.0391H154.448ZM174.993 42.0391V39.4155C174.257 40.267 173.405 40.9459 172.439 41.4522C171.472 41.9585 170.448 42.2117 169.366 42.2117C168.17 42.2117 167.042 41.993 165.983 41.5558C164.948 41.1185 164.027 40.4971 163.222 39.6917C162.416 38.9092 161.783 37.9887 161.323 36.93C160.886 35.8484 160.667 34.7207 160.667 33.547C160.667 32.3733 160.886 31.2571 161.323 30.1985C161.783 29.1169 162.416 28.1733 163.222 27.3678C164.027 26.5623 164.948 25.941 165.983 25.5037C167.042 25.0665 168.17 24.8478 169.366 24.8478C170.471 24.8478 171.507 25.078 172.473 25.5382C173.463 25.9985 174.303 26.6429 174.993 27.4714V25.193H178.1V42.0391H174.993ZM169.366 27.9202C168.607 27.9202 167.87 28.0697 167.157 28.3689C166.467 28.6451 165.868 29.0363 165.362 29.5426C164.856 30.0489 164.453 30.6588 164.154 31.3722C163.878 32.0626 163.739 32.7876 163.739 33.547C163.739 34.3065 163.878 35.0314 164.154 35.7218C164.453 36.4122 164.856 37.0106 165.362 37.5169C165.868 38.0232 166.467 38.4259 167.157 38.7251C167.87 39.0013 168.607 39.1393 169.366 39.1393C170.126 39.1393 170.851 39.0013 171.541 38.7251C172.231 38.4259 172.83 38.0232 173.336 37.5169C173.842 37.0106 174.234 36.4122 174.51 35.7218C174.809 35.0314 174.959 34.3065 174.959 33.547C174.959 32.7876 174.809 32.0626 174.51 31.3722C174.234 30.6588 173.842 30.0489 173.336 29.5426C172.83 29.0363 172.231 28.6451 171.541 28.3689C170.851 28.0697 170.126 27.9202 169.366 27.9202ZM189.568 29.9223C189.499 29.5081 189.349 29.1169 189.119 28.7486C188.682 27.9892 187.819 27.6095 186.53 27.6095C185.839 27.6095 185.31 27.69 184.942 27.8511C184.458 28.0352 184.09 28.2999 183.837 28.6451C183.607 28.9903 183.492 29.37 183.492 29.7843C183.492 30.2906 183.676 30.7508 184.044 31.1651C184.435 31.6023 185.068 31.8325 185.943 31.8555C187.485 31.9245 188.728 32.1086 189.671 32.4078C190.638 32.707 191.374 33.2248 191.88 33.9613C192.41 34.6977 192.674 35.7333 192.674 37.0681C192.674 38.4259 192.157 39.5996 191.121 40.5892C190.615 41.0725 190.016 41.4637 189.326 41.7629C188.659 42.0621 187.957 42.2117 187.22 42.2117H186.702C184.861 42.2117 183.377 41.6824 182.249 40.6237C181.329 39.7722 180.753 38.5755 180.523 37.0336H183.595C183.711 37.5859 183.941 38.0347 184.286 38.3799C184.815 38.8862 185.552 39.1393 186.495 39.1393C186.748 39.1393 186.932 39.1278 187.048 39.1048C187.853 39.0588 188.486 38.8402 188.946 38.4489C189.406 38.0347 189.637 37.5284 189.637 36.93C189.637 36.1015 189.383 35.5607 188.877 35.3076C188.371 35.0544 187.393 34.9278 185.943 34.9278C184.125 34.9278 182.732 34.3525 181.766 33.2018C180.983 32.3273 180.592 31.2226 180.592 29.8878C180.592 29.5886 180.604 29.3585 180.627 29.1974C180.811 27.7015 181.421 26.5623 182.456 25.7799C183.515 24.9744 184.907 24.5717 186.633 24.5717C187.899 24.5717 189.004 24.8478 189.947 25.4002C190.615 25.8144 191.19 26.3897 191.673 27.1262C192.134 27.8626 192.433 28.7832 192.571 29.8878L192.502 29.9223H189.568ZM200.947 27.8856V42.0391H198.013V27.8856H195.424V24.7788H198.013V19.0829H200.947V24.7788H203.536V27.8856H200.947ZM208.581 34.7207C208.581 35.273 208.777 35.8484 209.168 36.4467C209.582 37.0451 210.054 37.5514 210.584 37.9656C211.55 38.7251 212.678 39.1048 213.967 39.1048C216.015 39.1048 217.683 38.1152 218.972 36.136L221.596 37.6895C220.698 39.1393 219.593 40.2555 218.282 41.038C216.97 41.8204 215.532 42.2117 213.967 42.2117C212.793 42.2117 211.677 41.993 210.618 41.5558C209.559 41.0955 208.627 40.4626 207.822 39.6571C207.016 38.8517 206.384 37.9196 205.923 36.861C205.486 35.8023 205.267 34.6862 205.267 33.5125C205.267 32.3388 205.486 31.2226 205.923 30.164C206.384 29.0823 207.016 28.1388 207.822 27.3333C208.604 26.5278 209.525 25.9065 210.584 25.4692C211.665 25.0319 212.793 24.8133 213.967 24.8133C215.14 24.8133 216.256 25.0319 217.315 25.4692C218.397 25.9065 219.329 26.5278 220.111 27.3333C221.814 29.0823 222.666 31.1076 222.666 33.4089C222.666 33.8232 222.631 34.2604 222.562 34.7207H208.581ZM213.967 27.644C213.023 27.644 212.137 27.8511 211.308 28.2654C210.48 28.6796 209.813 29.2319 209.306 29.9223C208.823 30.5897 208.581 31.3032 208.581 32.0626H219.352C219.352 31.3032 219.099 30.5897 218.592 29.9223C218.109 29.2319 217.453 28.6796 216.625 28.2654C215.796 27.8511 214.91 27.644 213.967 27.644ZM236.439 42.0391V31.6829C236.439 30.6473 236.059 29.7497 235.3 28.9903C234.563 28.2539 233.666 27.8856 232.607 27.8856C231.572 27.8856 230.674 28.2654 229.915 29.0248C229.569 29.37 229.293 29.7843 229.086 30.2676C228.879 30.7278 228.775 31.1996 228.775 31.6829V42.0391H225.772V25.193H228.775V26.6084C229.213 26.0791 229.788 25.6418 230.501 25.2966C231.215 24.9514 231.917 24.7788 232.607 24.7788C233.528 24.7788 234.402 24.9629 235.231 25.3311C236.082 25.6763 236.83 26.1711 237.475 26.8155C238.096 27.4369 238.579 28.1733 238.924 29.0248C239.293 29.8533 239.477 30.7393 239.477 31.6829V42.0391H236.439ZM244.182 22.2933C243.745 22.2933 243.365 22.1437 243.043 21.8445C242.744 21.5223 242.594 21.1426 242.594 20.7054C242.594 20.2681 242.744 19.8999 243.043 19.6007C243.365 19.2785 243.745 19.1174 244.182 19.1174C244.619 19.1174 244.988 19.2785 245.287 19.6007C245.609 19.8999 245.77 20.2681 245.77 20.7054C245.77 21.1426 245.609 21.5223 245.287 21.8445C244.988 22.1437 244.619 22.2933 244.182 22.2933ZM242.767 42.0391V24.7788H245.666V42.0391H242.767ZM256.933 28.0928C256.381 27.8396 255.886 27.713 255.449 27.713C254.528 27.713 253.769 28.0352 253.171 28.6796C252.526 29.37 252.204 30.164 252.204 31.0615V42.0391H249.235V31.0615C249.235 29.8188 249.546 28.6796 250.167 27.644C250.812 26.6084 251.686 25.8029 252.791 25.2276C253.619 24.8363 254.505 24.6407 255.449 24.6407C256.208 24.6407 256.933 24.7788 257.624 25.0549C258.314 25.3311 259.039 25.7799 259.799 26.4012L256.933 28.0928ZM271.016 42.2117C269.934 42.2117 268.887 41.9585 267.875 41.4522C266.885 40.9459 266.022 40.2555 265.286 39.381V42.0391H262.248V19.1174H265.286V27.2643C265.792 26.5508 266.54 25.918 267.53 25.3656C268.542 24.8133 269.704 24.5371 271.016 24.5371C272.19 24.5371 273.317 24.7673 274.399 25.2276C275.481 25.6878 276.413 26.3207 277.195 27.1262C278.001 27.9547 278.622 28.9097 279.059 29.9914C279.52 31.05 279.75 32.1777 279.75 33.3744C279.75 34.5711 279.52 35.7103 279.059 36.7919C278.622 37.8506 278.001 38.7941 277.195 39.6226C276.413 40.4281 275.481 41.061 274.399 41.5213C273.317 41.9815 272.19 42.2117 271.016 42.2117ZM271.016 27.6785C270.257 27.6785 269.52 27.8281 268.807 28.1273C268.116 28.4034 267.518 28.8062 267.012 29.3355C266.505 29.8648 266.103 30.4862 265.803 31.1996C265.504 31.89 265.355 32.6149 265.355 33.3744C265.355 34.9163 265.907 36.2626 267.012 37.4133C267.518 37.9426 268.116 38.3569 268.807 38.656C269.52 38.9552 270.257 39.1048 271.016 39.1048C271.776 39.1048 272.5 38.9552 273.191 38.656C273.881 38.3569 274.48 37.9426 274.986 37.4133C276.091 36.2626 276.643 34.9163 276.643 33.3744C276.643 32.6149 276.493 31.89 276.194 31.1996C275.895 30.4862 275.492 29.8648 274.986 29.3355C274.48 28.8062 273.881 28.4034 273.191 28.1273C272.5 27.8281 271.776 27.6785 271.016 27.6785ZM289.991 49.3919C288.68 49.3919 287.46 49.0582 286.332 48.3908C285.228 47.7234 284.261 46.7569 283.432 45.4911L286.125 43.9377C286.608 44.6971 287.184 45.2725 287.851 45.6637C288.518 46.078 289.232 46.2851 289.991 46.2851C291.211 46.2851 292.27 45.8363 293.167 44.9388C293.581 44.5245 293.892 44.0413 294.099 43.4889C294.329 42.9366 294.445 42.3497 294.445 41.7284V40.5202C293.915 41.0725 293.248 41.5213 292.442 41.8665C291.637 42.1887 290.82 42.3497 289.991 42.3497C288.979 42.3497 288.024 42.1656 287.126 41.7974C286.229 41.4062 285.435 40.8654 284.744 40.175C284.031 39.4845 283.478 38.6906 283.087 37.793C282.696 36.8725 282.5 35.9059 282.5 34.8933V24.7788H285.538V34.6862C285.538 35.4917 285.734 36.2511 286.125 36.9645C286.539 37.655 287.08 38.2073 287.748 38.6215C288.438 39.0358 289.186 39.2429 289.991 39.2429C290.797 39.2429 291.545 39.0473 292.235 38.656C292.926 38.2418 293.466 37.6895 293.858 36.9991C294.249 36.2856 294.445 35.5147 294.445 34.6862V24.7788H297.482V41.7284C297.482 42.764 297.287 43.7536 296.895 44.6971C296.527 45.6407 295.998 46.4577 295.308 47.1481C294.594 47.8615 293.777 48.4139 292.857 48.8051C291.959 49.1963 291.004 49.3919 289.991 49.3919Z" fill="#4A9000"/>
</g>
<defs>
<linearGradient id="paint0_linear_3050_9948" x1="22.4287" y1="2.17723" x2="7.50449" y2="26.4356" gradientUnits="userSpaceOnUse">
<stop stop-color="#FCD42C"/>
<stop offset="1" stop-color="#FBAF2A"/>
</linearGradient>
<linearGradient id="paint1_linear_3050_9948" x1="116.469" y1="25.7956" x2="99.0798" y2="26.298" gradientUnits="userSpaceOnUse">
<stop offset="0.119738" stop-color="#337847"/>
<stop offset="1" stop-color="#61D637"/>
</linearGradient>
<linearGradient id="paint2_linear_3050_9948" x1="109.781" y1="14.6484" x2="109.781" y2="23.1529" gradientUnits="userSpaceOnUse">
<stop offset="0.165" stop-color="#D1D1D1"/>
<stop offset="1" stop-color="#D9D9D9" stop-opacity="0"/>
</linearGradient>
<linearGradient id="paint3_linear_3050_9948" x1="94.7424" y1="23.1208" x2="79.2804" y2="27.0684" gradientUnits="userSpaceOnUse">
<stop stop-color="#389449"/>
<stop offset="1" stop-color="#5FD237"/>
</linearGradient>
<linearGradient id="paint4_linear_3050_9948" x1="91.2756" y1="13.3555" x2="91.2756" y2="21.8599" gradientUnits="userSpaceOnUse">
<stop offset="0.225" stop-color="#D1D1D1"/>
<stop offset="1" stop-color="#D9D9D9" stop-opacity="0"/>
</linearGradient>
<linearGradient id="paint5_linear_3050_9948" x1="108.285" y1="26.7287" x2="87.6654" y2="29.3826" gradientUnits="userSpaceOnUse">
<stop stop-color="#313D52"/>
<stop offset="1" stop-color="#3A5264"/>
</linearGradient>
<linearGradient id="paint6_linear_3050_9948" x1="100.168" y1="14.5273" x2="100.168" y2="23.0318" gradientUnits="userSpaceOnUse">
<stop offset="0.225" stop-color="#D1D1D1"/>
<stop offset="1" stop-color="#D9D9D9" stop-opacity="0"/>
</linearGradient>
<linearGradient id="paint7_linear_3050_9948" x1="117.915" y1="22.1758" x2="111.909" y2="48.7545" gradientUnits="userSpaceOnUse">
<stop stop-color="#416C7A"/>
<stop offset="1" stop-color="#2B3447"/>
</linearGradient>
<linearGradient id="paint8_linear_3050_9948" x1="78.3683" y1="20.082" x2="88.6235" y2="49.5508" gradientUnits="userSpaceOnUse">
<stop stop-color="#426D7B"/>
<stop offset="1" stop-color="#2B3447"/>
</linearGradient>
<linearGradient id="paint9_linear_3050_9948" x1="98.3782" y1="26.9805" x2="98.3782" y2="47.5311" gradientUnits="userSpaceOnUse">
<stop stop-color="#FBBE27"/>
<stop offset="1" stop-color="#B27D32"/>
<stop offset="1.0001" stop-color="#737373"/>
</linearGradient>
<linearGradient id="paint10_linear_3050_9948" x1="98.3782" y1="26.9805" x2="98.3782" y2="47.5311" gradientUnits="userSpaceOnUse">
<stop stop-color="#FDD92B"/>
<stop offset="1" stop-color="#B17E34"/>
</linearGradient>
<linearGradient id="paint11_linear_3050_9948" x1="122.384" y1="31.2914" x2="105.235" y2="54.9742" gradientUnits="userSpaceOnUse">
<stop stop-color="#55D634"/>
<stop offset="1" stop-color="#304345"/>
</linearGradient>
<linearGradient id="paint12_linear_3050_9948" x1="111.891" y1="26.5664" x2="100.731" y2="54.8365" gradientUnits="userSpaceOnUse">
<stop stop-color="#C2E64E"/>
<stop offset="1" stop-color="#293247"/>
</linearGradient>
<linearGradient id="paint13_linear_3050_9948" x1="87.6652" y1="27.3414" x2="100.187" y2="51.6365" gradientUnits="userSpaceOnUse">
<stop stop-color="#C6E84B"/>
<stop offset="1" stop-color="#2A3346"/>
</linearGradient>
<linearGradient id="paint14_linear_3050_9948" x1="122.384" y1="31.2914" x2="105.235" y2="54.9742" gradientUnits="userSpaceOnUse">
<stop stop-color="#55D634"/>
<stop offset="1" stop-color="#304345"/>
</linearGradient>
<linearGradient id="paint15_linear_3050_9948" x1="77.1063" y1="32.0781" x2="96.5" y2="53.4817" gradientUnits="userSpaceOnUse">
<stop stop-color="#BDE84D"/>
<stop offset="1" stop-color="#3A884B"/>
</linearGradient>
<clipPath id="clip0_3050_9948">
<rect width="635.951" height="292" fill="white" transform="translate(-113)"/>
</clipPath>
<clipPath id="clip1_3050_9948">
<rect width="39.1477" height="39.4675" rx="2.61957" transform="matrix(-1 0 0 1 117.957 9.28516)" fill="white"/>
</clipPath>
<clipPath id="clip2_3050_9948">
<rect width="6.69078" height="20.5507" fill="white" transform="matrix(-1 0 0 1 99.2402 26.9805)"/>
</clipPath>
<clipPath id="clip3_3050_9948">
<rect width="47.648" height="17.7009" fill="white" transform="matrix(-1 0 0 1 122.648 31.0508)"/>
</clipPath>
</defs>
</svg>
