<svg width="42" height="42" viewBox="0 0 42 42" fill="none" xmlns="http://www.w3.org/2000/svg">
<path d="M40.8947 3.78899H30.9474C30.3395 3.78899 29.8421 4.28635 29.8421 4.89425V19.7838H22.1053V15.9994C22.1053 15.3915 21.6079 14.8941 21 14.8941H11.0526C10.4447 14.8941 9.94737 15.3915 9.94737 15.9994V29.2338H1.10526C0.497368 29.2338 0 29.7312 0 30.3391V40.8943C0 41.5022 0.497368 41.9996 1.10526 41.9996H40.8947C41.5026 41.9996 42 41.5022 42 40.8943V4.89425C42 4.28635 41.5026 3.78899 40.8947 3.78899ZM9.94737 39.7891H2.21053V31.4443H9.94737V39.7891ZM19.8947 39.7891H12.1579V17.1046H19.8947V39.7891ZM29.8421 39.7891H22.1053V21.9943H29.8421V39.7891ZM39.7895 39.7891H32.0526V5.99951H39.7895V39.7891Z" fill="black"/>
</svg>
