<svg width="337" height="355" viewBox="0 0 337 355" fill="none" xmlns="http://www.w3.org/2000/svg">
<ellipse cx="189.354" cy="105.575" rx="93.7517" ry="93.5748" fill="url(#paint0_linear_2986_2819)"/>
<g clip-path="url(#clip0_2986_2819)">
<path d="M102.948 73.362L36.3404 166.804L33.8408 219.765L148.908 217.294L176.269 163.826C157.923 136.583 120.072 80.3493 115.436 73.362C110.801 66.3746 105.18 70.4506 102.948 73.362Z" fill="url(#paint1_linear_2986_2819)"/>
<path d="M102.948 73.362L77.2061 109.288C81.2188 112.333 90.3872 119.891 93.2756 126.035C102.505 120.905 122.937 116.194 130.836 138.389C135.095 135.178 145.747 129.24 154.29 131.178L115.437 73.362C110.801 66.3746 105.18 70.4506 102.948 73.362Z" fill="white"/>
<path d="M102.948 73.362L77.627 109.218C81.6397 112.264 90.3873 119.891 93.2757 126.035C97.6715 115.769 115.437 73.362 115.437 73.362C110.802 66.3746 105.18 70.4506 102.948 73.362Z" fill="url(#paint2_linear_2986_2819)"/>
<path d="M225.954 64.7643L159.347 158.207L156.847 211.167L271.914 208.696L299.276 155.228C280.929 127.985 243.078 71.7517 238.443 64.7643C233.808 57.777 228.186 61.8529 225.954 64.7643Z" fill="url(#paint3_linear_2986_2819)"/>
<path d="M225.954 64.7643L200.321 100.623C204.334 103.668 213.393 111.293 216.282 117.438C225.511 112.307 245.943 107.596 253.842 129.792C258.101 126.58 268.753 120.642 277.296 122.58L238.443 64.7643C233.807 57.777 228.186 61.8529 225.954 64.7643Z" fill="#FFFFFE"/>
<path d="M225.954 64.7643L200.633 100.62C204.646 103.666 213.393 111.293 216.282 117.438C220.677 107.171 238.443 64.7643 238.443 64.7643C233.807 57.777 228.186 61.8529 225.954 64.7643Z" fill="url(#paint4_linear_2986_2819)"/>
<path d="M270.497 285.207H226.012C211.506 270.653 185.053 234.225 195.289 204.943C205.525 175.66 220.036 155.181 226.012 148.602C239.803 164.231 251.889 191.5 256.208 203.181L270.497 285.207Z" fill="#D9D9D9"/>
<path d="M166.846 72.5495L100.238 165.992L97.7383 218.952L212.805 216.481L240.167 163.013C221.82 135.77 183.969 79.5368 179.334 72.5495C174.699 65.5621 169.077 69.6381 166.846 72.5495Z" fill="url(#paint5_linear_2986_2819)"/>
<path d="M166.845 72.5495L141.24 108.403C145.253 111.449 154.284 119.078 157.173 125.223C166.402 120.093 186.834 115.381 194.733 137.577C198.992 134.365 209.645 128.427 218.187 130.366L179.334 72.5495C174.699 65.5621 169.077 69.6381 166.845 72.5495Z" fill="white"/>
<path d="M166.845 72.5495L141.524 108.406C145.537 111.451 154.284 119.078 157.173 125.223C161.568 114.956 179.334 72.5495 179.334 72.5495C174.698 65.5621 169.077 69.6381 166.845 72.5495Z" fill="url(#paint6_linear_2986_2819)"/>
<path d="M212.671 296.191L32.5192 119.516L28.564 296.191H212.671Z" fill="url(#paint7_linear_2986_2819)"/>
<path d="M135.338 282.285L315.49 105.609L319.445 282.285L299.4 301.496H135.338V282.285Z" fill="url(#paint8_linear_2986_2819)"/>
<path d="M211.079 288.07H166.595C152.089 273.517 125.636 237.089 135.872 207.806C146.108 178.524 160.618 158.044 166.595 151.465C180.385 167.094 192.471 194.363 196.791 206.044L211.079 288.07Z" fill="url(#paint9_linear_2986_2819)"/>
<g clip-path="url(#clip1_2986_2819)">
<path d="M211.08 288.07H166.595C152.089 273.517 125.636 237.089 135.872 207.806C146.108 178.524 160.619 158.044 166.595 151.465C180.386 167.094 192.472 194.363 196.791 206.044L211.08 288.07Z" fill="url(#paint10_linear_2986_2819)"/>
</g>
<path d="M92.1742 316.158C42.1136 261.401 17.1995 201.589 11 178.527C69.2279 198.34 118.728 259.855 136.199 288.136C142.383 320.292 142.235 370.915 92.1742 316.158Z" fill="url(#paint11_linear_2986_2819)"/>
<path d="M120.879 303.796C88.5543 237.016 81.7723 172.578 82.4219 148.707C132.559 184.334 162.415 257.429 171.076 289.524C167.812 322.106 153.203 370.575 120.879 303.796Z" fill="url(#paint12_linear_2986_2819)"/>
<path d="M157.552 277.546C187.711 209.761 232.563 163.001 251.219 148.094C256.353 209.385 219.776 279.36 200.845 306.686C173.848 325.216 127.392 345.331 157.552 277.546Z" fill="url(#paint13_linear_2986_2819)"/>
</g>
<g clip-path="url(#clip2_2986_2819)">
<path d="M92.1742 316.158C42.1136 261.401 17.1995 201.589 11 178.527C69.2279 198.34 118.728 259.855 136.199 288.136C142.383 320.292 142.235 370.915 92.1742 316.158Z" fill="url(#paint14_linear_2986_2819)"/>
<path d="M192.89 283.99C240.564 227.143 296.566 194.555 318.608 185.367C306.651 245.7 252.205 302.883 226.476 323.933C195.417 334.306 145.217 340.838 192.89 283.99Z" fill="url(#paint15_linear_2986_2819)"/>
</g>
<path d="M94.5758 303.997V334.615H91.3893V308.476L81.0447 323.439H78.3662L68.0216 308.476V334.707H64.8813V303.997H68.7605L79.7055 319.837L90.6504 303.997H94.5758ZM122.061 312.217V334.707H118.875V330.458C116.75 333.445 113.918 334.938 110.377 334.938C108.253 334.938 106.298 334.43 104.512 333.414C102.727 332.367 101.31 330.951 100.264 329.165C99.2477 327.38 98.7397 325.44 98.7397 323.346C98.7397 321.222 99.2477 319.267 100.264 317.481C101.31 315.696 102.727 314.295 104.512 313.279C106.298 312.232 108.253 311.709 110.377 311.709C112.563 311.709 114.349 312.171 115.734 313.094C117.151 313.987 118.197 314.957 118.875 316.004V312.217H122.061ZM110.377 331.798C111.917 331.798 113.333 331.428 114.626 330.689C115.919 329.92 116.935 328.888 117.674 327.595C118.444 326.302 118.828 324.886 118.828 323.346C118.828 321.807 118.444 320.391 117.674 319.098C116.935 317.774 115.919 316.743 114.626 316.004C113.333 315.234 111.917 314.849 110.377 314.849C108.838 314.849 107.406 315.234 106.082 316.004C104.789 316.743 103.758 317.774 102.988 319.098C102.249 320.391 101.88 321.807 101.88 323.346C101.88 324.886 102.249 326.302 102.988 327.595C103.758 328.888 104.789 329.92 106.082 330.689C107.406 331.428 108.838 331.798 110.377 331.798ZM128.536 328.519C128.782 329.381 129.167 330.058 129.69 330.551C130.552 331.351 131.814 331.751 133.477 331.751C134.924 331.751 136.094 331.413 136.987 330.735C137.88 330.058 138.326 329.181 138.326 328.103C138.326 327.087 138.126 326.333 137.726 325.84C137.325 325.348 136.802 325.04 136.155 324.917C135.54 324.763 134.678 324.67 133.569 324.64C131.968 324.547 130.66 324.378 129.644 324.132C128.628 323.854 127.704 323.254 126.873 322.33C125.857 321.068 125.349 319.683 125.349 318.174C125.349 317.805 125.364 317.528 125.395 317.343C125.642 315.403 126.457 313.926 127.843 312.91C129.228 311.863 131.091 311.339 133.431 311.339H133.477C135.201 311.339 136.602 311.663 137.679 312.309C138.757 312.956 139.588 313.741 140.173 314.664C140.789 315.68 141.174 316.743 141.328 317.851H138.095C138.033 317.42 137.833 316.912 137.495 316.327C136.725 315.157 135.386 314.541 133.477 314.48C131.537 314.48 130.26 314.803 129.644 315.449C129.028 316.096 128.659 316.85 128.536 317.712C128.505 317.836 128.489 318.005 128.489 318.22C128.489 318.959 128.751 319.621 129.274 320.206C129.705 320.73 130.26 321.084 130.937 321.268C131.614 321.422 132.584 321.545 133.846 321.638C134.862 321.699 135.724 321.792 136.433 321.915C137.171 322.038 137.864 322.269 138.511 322.608C140.512 323.685 141.512 325.517 141.512 328.103C141.512 328.996 141.328 329.858 140.958 330.689C140.62 331.49 140.127 332.198 139.48 332.814C138.033 334.23 136.048 334.938 133.523 334.938C131.06 334.938 129.059 334.245 127.52 332.86C126.319 331.69 125.58 330.243 125.303 328.519H128.536ZM156.044 314.757H152.211V334.707H149.024V314.757H145.191V311.616H149.024V303.997H152.211V311.616H156.044V314.757ZM161.685 324.87C162.055 326.841 163.025 328.488 164.595 329.812C166.165 331.105 167.966 331.751 169.998 331.751C171.507 331.751 172.892 331.397 174.154 330.689C175.417 329.981 176.433 329.011 177.202 327.78L179.927 329.35C178.88 331.043 177.479 332.398 175.724 333.414C173.97 334.43 172.061 334.938 169.998 334.938C167.904 334.938 165.965 334.415 164.179 333.368C162.393 332.321 160.977 330.905 159.93 329.119C158.884 327.333 158.36 325.394 158.36 323.3C158.36 321.176 158.884 319.236 159.93 317.481C160.977 315.696 162.393 314.28 164.179 313.233C165.965 312.186 167.904 311.663 169.998 311.663C172.091 311.663 174.031 312.186 175.817 313.233C177.602 314.28 179.019 315.696 180.065 317.481C181.112 319.236 181.636 321.176 181.636 323.3C181.636 323.67 181.605 324.193 181.543 324.87H161.685ZM169.998 314.803C168.643 314.803 167.319 315.126 166.026 315.773C164.733 316.389 163.687 317.251 162.886 318.359C162.086 319.436 161.685 320.606 161.685 321.869H178.311C178.311 320.606 177.91 319.436 177.11 318.359C176.309 317.251 175.263 316.389 173.97 315.773C172.707 315.126 171.383 314.803 169.998 314.803ZM194.935 311.616C196.598 311.616 198.122 312.032 199.507 312.863C200.923 313.664 202.047 314.772 202.878 316.188C203.709 317.574 204.125 319.098 204.125 320.76V334.707H200.939V320.76C200.939 319.683 200.662 318.698 200.107 317.805C199.584 316.881 198.86 316.158 197.937 315.634C197.013 315.08 196.013 314.803 194.935 314.803C193.857 314.803 192.857 315.08 191.933 315.634C191.01 316.158 190.271 316.881 189.717 317.805C189.193 318.698 188.931 319.683 188.931 320.76V334.707H185.791V312.217H188.931V314.249C189.701 313.387 190.594 312.74 191.61 312.309C192.657 311.847 193.765 311.616 194.935 311.616ZM210.374 305.197C210.928 305.197 211.405 305.397 211.805 305.798C212.205 306.198 212.406 306.675 212.406 307.229C212.406 307.814 212.205 308.307 211.805 308.707C211.405 309.107 210.928 309.307 210.374 309.307C209.789 309.307 209.296 309.107 208.896 308.707C208.496 308.307 208.295 307.814 208.295 307.229C208.295 306.675 208.496 306.198 208.896 305.798C209.296 305.397 209.789 305.197 210.374 305.197ZM211.944 311.616V334.707H208.757V311.616H211.944ZM227.62 315.034C226.912 314.726 226.204 314.572 225.496 314.572C224.049 314.572 222.802 315.095 221.755 316.142C220.708 317.189 220.185 318.436 220.185 319.883V334.707H217.045V319.883C217.045 318.22 217.476 316.712 218.338 315.357C219.231 313.972 220.385 312.94 221.801 312.263L221.894 312.217C223.033 311.693 224.233 311.432 225.496 311.432C227.466 311.432 229.221 312.032 230.76 313.233L227.62 315.034ZM237.096 304.043V315.865C239.22 313.002 242.099 311.57 245.732 311.57C247.856 311.57 249.811 312.094 251.597 313.14C253.382 314.187 254.799 315.619 255.845 317.435C256.892 319.221 257.416 321.161 257.416 323.254C257.416 325.348 256.892 327.303 255.845 329.119C254.799 330.905 253.382 332.321 251.597 333.368C249.811 334.415 247.856 334.938 245.732 334.938C242.222 334.938 239.343 333.429 237.096 330.412V334.707H234.002V304.043H237.096ZM237.188 323.254C237.188 324.793 237.573 326.225 238.343 327.549C239.112 328.842 240.144 329.873 241.437 330.643C242.761 331.413 244.192 331.798 245.732 331.798C247.271 331.798 248.687 331.413 249.98 330.643C251.274 329.873 252.305 328.842 253.075 327.549C253.844 326.225 254.229 324.793 254.229 323.254C254.229 321.715 253.844 320.299 253.075 319.005C252.305 317.712 251.274 316.681 249.98 315.911C248.687 315.142 247.271 314.757 245.732 314.757C244.192 314.757 242.761 315.142 241.437 315.911C240.144 316.681 239.112 317.712 238.343 319.005C237.573 320.299 237.188 321.715 237.188 323.254ZM281.138 311.616V334.522C281.138 336.339 280.692 338.017 279.799 339.556C278.906 341.095 277.69 342.312 276.15 343.204C274.611 344.097 272.933 344.544 271.117 344.544C269.362 344.544 267.745 344.128 266.268 343.297C264.79 342.465 263.589 341.342 262.665 339.926L265.436 338.355C266.052 339.279 266.853 340.018 267.838 340.572C268.854 341.126 269.947 341.403 271.117 341.403C272.348 341.403 273.487 341.095 274.534 340.48C275.612 339.864 276.458 339.017 277.074 337.94C277.69 336.893 277.998 335.754 277.998 334.522V332.075C277.074 332.937 276.027 333.614 274.857 334.107C273.687 334.568 272.44 334.799 271.117 334.799C269.331 334.799 267.668 334.368 266.129 333.506C264.62 332.613 263.404 331.428 262.481 329.95C261.588 328.473 261.126 326.841 261.095 325.055V311.616H264.236V324.778C264.236 326.01 264.544 327.164 265.159 328.242C265.775 329.288 266.606 330.12 267.653 330.735C268.731 331.351 269.885 331.659 271.117 331.659C272.348 331.659 273.487 331.351 274.534 330.735C275.612 330.12 276.458 329.288 277.074 328.242C277.69 327.164 277.998 326.01 277.998 324.778V311.616H281.138Z" fill="black"/>
<defs>
<linearGradient id="paint0_linear_2986_2819" x1="244.692" y1="26.4726" x2="145.487" y2="187.724" gradientUnits="userSpaceOnUse">
<stop stop-color="#FCD42C"/>
<stop offset="1" stop-color="#FBAF2A"/>
</linearGradient>
<linearGradient id="paint1_linear_2986_2819" x1="52.0706" y1="143.602" x2="167.664" y2="146.942" gradientUnits="userSpaceOnUse">
<stop offset="0.119738" stop-color="#337847"/>
<stop offset="1" stop-color="#61D637"/>
</linearGradient>
<linearGradient id="paint2_linear_2986_2819" x1="96.5319" y1="69.5039" x2="96.5319" y2="126.035" gradientUnits="userSpaceOnUse">
<stop offset="0.165" stop-color="#D1D1D1"/>
<stop offset="1" stop-color="#D9D9D9" stop-opacity="0"/>
</linearGradient>
<linearGradient id="paint3_linear_2986_2819" x1="196.496" y1="125.819" x2="299.276" y2="152.06" gradientUnits="userSpaceOnUse">
<stop stop-color="#389449"/>
<stop offset="1" stop-color="#5FD237"/>
</linearGradient>
<linearGradient id="paint4_linear_2986_2819" x1="219.538" y1="60.9062" x2="219.538" y2="117.438" gradientUnits="userSpaceOnUse">
<stop offset="0.225" stop-color="#D1D1D1"/>
<stop offset="1" stop-color="#D9D9D9" stop-opacity="0"/>
</linearGradient>
<linearGradient id="paint5_linear_2986_2819" x1="106.472" y1="149.797" x2="243.538" y2="167.438" gradientUnits="userSpaceOnUse">
<stop stop-color="#313D52"/>
<stop offset="1" stop-color="#3A5264"/>
</linearGradient>
<linearGradient id="paint6_linear_2986_2819" x1="160.429" y1="68.6914" x2="160.429" y2="125.223" gradientUnits="userSpaceOnUse">
<stop offset="0.225" stop-color="#D1D1D1"/>
<stop offset="1" stop-color="#D9D9D9" stop-opacity="0"/>
</linearGradient>
<linearGradient id="paint7_linear_2986_2819" x1="42.4601" y1="119.516" x2="82.3864" y2="296.191" gradientUnits="userSpaceOnUse">
<stop stop-color="#416C7A"/>
<stop offset="1" stop-color="#2B3447"/>
</linearGradient>
<linearGradient id="paint8_linear_2986_2819" x1="305.338" y1="105.609" x2="237.169" y2="301.496" gradientUnits="userSpaceOnUse">
<stop stop-color="#426D7B"/>
<stop offset="1" stop-color="#2B3447"/>
</linearGradient>
<linearGradient id="paint9_linear_2986_2819" x1="172.327" y1="151.465" x2="172.327" y2="288.07" gradientUnits="userSpaceOnUse">
<stop stop-color="#FBBE27"/>
<stop offset="1" stop-color="#B27D32"/>
<stop offset="1.0001" stop-color="#737373"/>
</linearGradient>
<linearGradient id="paint10_linear_2986_2819" x1="172.328" y1="151.465" x2="172.328" y2="288.07" gradientUnits="userSpaceOnUse">
<stop stop-color="#FDD92B"/>
<stop offset="1" stop-color="#B17E34"/>
</linearGradient>
<linearGradient id="paint11_linear_2986_2819" x1="12.7526" y1="180.127" x2="126.747" y2="337.553" gradientUnits="userSpaceOnUse">
<stop stop-color="#55D634"/>
<stop offset="1" stop-color="#304345"/>
</linearGradient>
<linearGradient id="paint12_linear_2986_2819" x1="82.5017" y1="148.707" x2="156.685" y2="336.626" gradientUnits="userSpaceOnUse">
<stop stop-color="#C2E64E"/>
<stop offset="1" stop-color="#293247"/>
</linearGradient>
<linearGradient id="paint13_linear_2986_2819" x1="243.538" y1="153.869" x2="160.305" y2="315.365" gradientUnits="userSpaceOnUse">
<stop stop-color="#C6E84B"/>
<stop offset="1" stop-color="#2A3346"/>
</linearGradient>
<linearGradient id="paint14_linear_2986_2819" x1="12.7526" y1="180.127" x2="126.747" y2="337.553" gradientUnits="userSpaceOnUse">
<stop stop-color="#55D634"/>
<stop offset="1" stop-color="#304345"/>
</linearGradient>
<linearGradient id="paint15_linear_2986_2819" x1="313.728" y1="185.367" x2="184.812" y2="327.642" gradientUnits="userSpaceOnUse">
<stop stop-color="#BDE84D"/>
<stop offset="1" stop-color="#3A884B"/>
</linearGradient>
<clipPath id="clip0_2986_2819">
<rect x="42.1826" y="33.8398" width="260.225" height="262.351" rx="17.4129" fill="white"/>
</clipPath>
<clipPath id="clip1_2986_2819">
<rect width="44.4754" height="136.606" fill="white" transform="translate(166.597 151.465)"/>
</clipPath>
<clipPath id="clip2_2986_2819">
<rect width="316.729" height="117.662" fill="white" transform="translate(11 178.527)"/>
</clipPath>
</defs>
</svg>
