<svg width="79" height="79" viewBox="0 0 79 79" fill="none" xmlns="http://www.w3.org/2000/svg">
<path d="M8.46432 26.6753C6.41238 21.5455 7.4383 15.6461 11.5422 11.5422C15.6461 7.43831 21.5454 6.41234 26.6753 8.46429C28.7272 3.33442 33.8571 0 39.5 0C45.3993 0 50.2727 3.59092 52.3246 8.46429C57.4545 6.41234 63.3539 7.43831 67.4578 11.5422C71.5617 15.6461 72.5876 21.5455 70.5357 26.6753C75.6655 28.7273 79 33.8571 79 39.5C79 45.3993 75.409 50.2727 70.5357 52.3247C72.5876 57.4545 71.5617 63.3539 67.4578 67.4578C63.3539 71.5617 57.4545 72.5877 52.3246 70.5357C50.2727 75.6656 45.1428 79 39.5 79C33.6006 79 28.7272 75.4091 26.6753 70.5357C21.5454 72.5877 15.6461 71.5617 11.5422 67.4578C7.4383 63.3539 6.41238 57.4545 8.46432 52.3247C3.33446 50.2727 0 45.1429 0 39.5C0 33.8571 3.33446 28.9838 8.46432 26.6753Z" fill="#4A9000"/>
</svg>
